<svg width="35" height="35" viewBox="0 0 35 35" fill="none" xmlns="http://www.w3.org/2000/svg">
<path d="M16.9977 14.4028C15.6745 14.4028 14.5977 15.4797 14.5977 16.8029C14.5977 18.1261 15.6745 19.2029 16.9977 19.2029C18.3209 19.2029 19.3977 18.1261 19.3977 16.8029C19.3977 15.4797 18.3209 14.4028 16.9977 14.4028ZM16.9977 18.0029C16.3349 18.0029 15.7977 17.4657 15.7977 16.8029C15.7977 16.14 16.3349 15.6028 16.9977 15.6028C17.6605 15.6028 18.1977 16.14 18.1977 16.8029C18.1977 17.4657 17.6605 18.0029 16.9977 18.0029Z" fill="#A8A8A8"/>
<path d="M28.9141 24.7574L26.6773 19.1654L27.7381 15.9825C27.8601 15.6165 27.7989 15.2141 27.5733 14.9013C27.3481 14.5885 26.9857 14.4028 26.6 14.4028H21.8C21.4144 14.4028 21.052 14.5884 20.8264 14.9013C20.6007 15.2141 20.5396 15.6165 20.6615 15.9825L21.7223 19.1654L20.1255 23.1578L19.3639 20.1118C19.2303 19.5778 18.7507 19.2029 18.1999 19.2029H16.9999H15.7999C15.2491 19.2029 14.7695 19.5778 14.6359 20.1118L14.4063 21.0294L13.3807 15.3881C13.2771 14.8176 12.7799 14.4028 12.1999 14.4028H7.3998C6.81981 14.4028 6.32298 14.8176 6.21938 15.3884L5.01936 21.9885C4.95575 22.3386 5.05058 22.6989 5.27859 22.9721C5.50659 23.2453 5.84419 23.4029 6.19979 23.4029H6.96658L7.40379 28.8982C7.45338 29.5219 7.9738 30.0031 8.59977 30.0031H10.9998C11.6258 30.0031 12.1466 29.5219 12.1962 28.8983L12.6331 23.403H13.3998C13.5527 23.403 13.6983 23.361 13.8371 23.3058L13.4355 24.9122C13.3459 25.2706 13.4263 25.6507 13.6539 25.9418C13.8814 26.2327 14.2303 26.4031 14.5999 26.4031V28.8031C14.5999 29.4659 15.1371 30.0031 15.7999 30.0031H18.1999C18.8627 30.0031 19.3999 29.4659 19.3999 28.8031V26.4031C19.6127 26.4031 19.81 26.3334 19.99 26.2298C20.1728 26.3386 20.3808 26.4031 20.5999 26.4031H21.8V28.8031C21.8 29.4659 22.3372 30.0031 23 30.0031H25.4C26.0628 30.0031 26.6 29.4659 26.6 28.8031V26.4031H27.8001C28.1985 26.4031 28.5705 26.2055 28.7937 25.8758C29.0169 25.5463 29.0621 25.1271 28.9141 24.7574ZM11.5246 22.203L10.9998 28.8031H8.59977L8.075 22.203H6.19974L7.39976 15.6029H12.1998L13.3998 22.203H11.5246ZM18.1999 25.203V28.8031H15.7999V25.203H14.5999L15.7999 20.403H18.1999L19.3999 25.203H18.1999ZM25.4 25.203V28.8031H23V25.203H20.5999L23 19.2029L21.8 15.6029H26.6L25.4 19.2029L27.8001 25.203H25.4Z" fill="#A8A8A8"/>
<path d="M24.1977 6.00049C22.2125 6.00049 20.5977 7.61531 20.5977 9.60054C20.5977 11.5858 22.2125 13.2006 24.1977 13.2006C26.1829 13.2006 27.7978 11.5858 27.7978 9.60054C27.7978 7.61531 26.1829 6.00049 24.1977 6.00049ZM24.1977 12.0006C22.8721 12.0006 21.7977 10.9261 21.7977 9.60054C21.7977 8.27494 22.8721 7.20051 24.1977 7.20051C25.5233 7.20051 26.5977 8.27494 26.5977 9.60054C26.5977 10.9261 25.5234 12.0006 24.1977 12.0006Z" fill="#A8A8A8"/>
<path d="M9.80122 6C7.81641 6 6.20117 7.61482 6.20117 9.60005C6.20117 11.5853 7.81641 13.2001 9.80122 13.2001C11.7865 13.2001 13.4013 11.5853 13.4013 9.60005C13.4013 7.61482 11.7865 6 9.80122 6ZM9.80122 12.0001C8.47563 12.0001 7.40119 10.9257 7.40119 9.60005C7.40119 8.27446 8.47563 7.20002 9.80122 7.20002C11.1268 7.20002 12.2013 8.27446 12.2013 9.60005C12.2013 10.9257 11.1269 12.0001 9.80122 12.0001Z" fill="#A8A8A8"/>
</svg>
