<svg width="35" height="35" viewBox="0 0 35 35" fill="none" xmlns="http://www.w3.org/2000/svg">
<path fill-rule="evenodd" clip-rule="evenodd" d="M11.6543 9.32557C10.8563 9.32557 10.2093 9.97253 10.2093 10.7706V16.8371H10.4605C10.4701 16.8371 10.4797 16.8371 10.4892 16.8371C10.4939 16.8371 10.4986 16.8371 10.5033 16.8371H24.5107C24.5203 16.8371 24.5298 16.8371 24.5395 16.8371H26.3372C26.7032 16.8371 27 17.1339 27 17.4999C27 17.866 26.7032 18.1627 26.3372 18.1627H26.1005C26.1062 18.2024 26.1104 18.2427 26.113 18.2832C26.1164 18.3343 26.1163 18.3895 26.1163 18.4427V18.4762C26.1163 18.8077 26.1163 19.0021 26.1025 19.2189C25.9771 21.1952 24.9091 23.0202 23.3614 24.2135C23.3735 24.2326 23.3848 24.2526 23.3951 24.2732L24.2788 26.0407C24.4426 26.3681 24.3099 26.7662 23.9824 26.9299C23.655 27.0936 23.2569 26.9609 23.0932 26.6335L22.2381 24.9231C21.5295 25.2818 20.759 25.5179 19.9575 25.599C19.7415 25.6209 19.6096 25.6258 19.385 25.6342L19.3791 25.6345C18.7249 25.6591 18.0846 25.6743 17.5 25.6743C16.9154 25.6743 16.2751 25.6591 15.6209 25.6345L15.615 25.6342C15.3904 25.6258 15.2585 25.6209 15.0425 25.599C14.241 25.5179 13.4705 25.2818 12.7619 24.9231L11.9068 26.6335C11.7431 26.9609 11.3449 27.0936 11.0175 26.9299C10.6901 26.7662 10.5574 26.3681 10.7211 26.0407L11.6049 24.2732C11.6152 24.2526 11.6265 24.2326 11.6386 24.2135C10.0908 23.0202 9.02291 21.1952 8.89747 19.2189C8.88371 19.0021 8.88371 18.8076 8.88372 18.4761V18.4567C8.88372 18.452 8.88372 18.4474 8.88371 18.4427C8.88371 18.4263 8.8837 18.4098 8.88379 18.3932C8.88375 18.39 8.88372 18.3868 8.88372 18.3836V18.1627H8.66279C8.29674 18.1627 8 17.866 8 17.4999C8 17.1339 8.29674 16.8371 8.66279 16.8371H8.88372V10.7706C8.88372 9.24043 10.1242 8 11.6543 8C12.7872 8 13.806 8.68974 14.2268 9.74161L14.3241 9.98494C15.0252 9.8071 15.7858 9.8483 16.5029 10.1546C17.4001 10.5379 18.053 11.2612 18.3873 12.1097C18.5186 12.4428 18.3616 12.8199 18.0328 12.9615L12.7652 15.2292C12.6004 15.3001 12.4139 15.3012 12.2484 15.2323C12.0828 15.1633 11.9522 15.0303 11.8864 14.8634C11.5522 14.0151 11.5322 13.0329 11.9036 12.1182C12.168 11.4671 12.5972 10.9333 13.1226 10.5505L12.996 10.2339C12.7766 9.68531 12.2452 9.32557 11.6543 9.32557ZM10.5033 18.1627C10.4679 18.1627 10.4468 18.1627 10.4309 18.1629C10.4193 18.1631 10.4152 18.1632 10.415 18.1632C10.4145 18.1632 10.415 18.1632 10.415 18.1632C10.3045 18.1704 10.2173 18.2582 10.2098 18.3687C10.2098 18.3698 10.2096 18.3742 10.2095 18.3843C10.2093 18.4003 10.2093 18.4213 10.2093 18.4567C10.2093 18.8125 10.2096 18.9645 10.2204 19.1349C10.3843 21.7168 12.6021 24.0195 15.176 24.2802C15.3483 24.2976 15.4437 24.3013 15.6707 24.3099C16.314 24.334 16.937 24.3487 17.5 24.3487C18.063 24.3487 18.686 24.334 19.3293 24.3099C19.5563 24.3013 19.6517 24.2976 19.824 24.2802C22.3979 24.0195 24.6157 21.7168 24.7796 19.1349C24.7904 18.9645 24.7907 18.8125 24.7907 18.4567C24.7907 18.4213 24.7907 18.4003 24.7905 18.3843C24.7904 18.3753 24.7903 18.3708 24.7903 18.3692C24.7902 18.3681 24.7902 18.3682 24.7903 18.3692C24.783 18.2585 24.6948 18.1704 24.5841 18.1631C24.5851 18.1632 24.5854 18.1632 24.5841 18.1631C24.5823 18.1631 24.5777 18.163 24.5691 18.1629C24.5532 18.1627 24.5321 18.1627 24.4967 18.1627H10.5033ZM15.9821 11.3736C15.4012 11.1254 14.7733 11.16 14.2365 11.4213C13.7603 11.6531 13.3564 12.0638 13.1318 12.617C12.9873 12.9728 12.935 13.3434 12.9634 13.7006L16.8351 12.0339C16.6147 11.7499 16.3258 11.5205 15.9821 11.3736Z" fill="#042E60"/>
</svg>
