<svg width="35" height="35" viewBox="0 0 35 35" fill="none" xmlns="http://www.w3.org/2000/svg">
<path d="M15.6082 13.6073C15.3675 13.7902 15.3195 14.1287 15.4993 14.3649C15.6787 14.6025 16.0185 14.647 16.2591 14.4646C16.4993 14.2817 16.5487 13.9419 16.3689 13.7057C16.1896 13.4685 15.8475 13.4248 15.6082 13.6073Z" fill="#A8A8A8"/>
<path d="M14.3231 15.2598C14.1437 15.0227 13.8026 14.9791 13.5624 15.1615C13.3217 15.3431 13.2737 15.6833 13.4531 15.9195C13.6329 16.1566 13.9727 16.2002 14.2129 16.0187C14.4535 15.8358 14.5025 15.496 14.3231 15.2598Z" fill="#A8A8A8"/>
<path d="M12.2792 16.8104C12.0993 16.5742 11.7587 16.5306 11.518 16.7121C11.2778 16.895 11.2298 17.2344 11.4092 17.4719C11.5886 17.7082 11.9283 17.7518 12.169 17.5694C12.4092 17.3874 12.4585 17.0475 12.2792 16.8104Z" fill="#A8A8A8"/>
<path d="M9.47521 18.2671C9.23371 18.4487 9.18564 18.7889 9.36551 19.0261C9.54489 19.2623 9.88552 19.3059 10.1253 19.123C10.3655 18.9415 10.4157 18.6008 10.235 18.3645C10.0557 18.1283 9.71451 18.0833 9.47521 18.2671Z" fill="#A8A8A8"/>
<path d="M7.43028 19.8203C7.19049 20.0032 7.14162 20.3426 7.32101 20.5788C7.50082 20.8164 7.8415 20.86 8.08081 20.6775C8.32145 20.4955 8.37038 20.1558 8.19099 19.9186C8.01161 19.6815 7.67049 19.6387 7.43028 19.8203Z" fill="#A8A8A8"/>
<path d="M14.8571 12.8038C15.1181 12.6958 15.2388 12.386 15.1251 12.1114C15.0118 11.8368 14.7073 11.7011 14.4455 11.8091C14.1837 11.9179 14.0643 12.2277 14.1775 12.5023C14.2908 12.7769 14.5953 12.9118 14.8571 12.8038Z" fill="#A8A8A8"/>
<path d="M12.63 13.7245C12.8923 13.6165 13.013 13.3054 12.8998 13.0321C12.7861 12.7571 12.4815 12.6227 12.2197 12.7307C11.9592 12.8386 11.8384 13.1484 11.9518 13.423C12.0659 13.6976 12.3696 13.8325 12.63 13.7245Z" fill="#A8A8A8"/>
<path d="M9.99139 13.6474C9.72956 13.7549 9.61015 14.0651 9.72343 14.3406C9.83761 14.6143 10.1412 14.75 10.403 14.6408C10.664 14.5332 10.7847 14.2229 10.6714 13.9483C10.5581 13.6738 10.2532 13.5389 9.99139 13.6474Z" fill="#A8A8A8"/>
<path d="M7.76505 14.5693C7.50413 14.6773 7.38339 14.9871 7.49666 15.2617C7.60989 15.5377 7.91445 15.672 8.17622 15.564C8.43804 15.4552 8.55788 15.1453 8.44466 14.8707C8.33143 14.5962 8.02687 14.4605 7.76505 14.5693Z" fill="#A8A8A8"/>
<path d="M5.53728 15.488C5.27551 15.596 5.15604 15.9066 5.26932 16.1803C5.38345 16.4562 5.6871 16.5907 5.94893 16.4827C6.2107 16.3738 6.33144 16.064 6.21731 15.789C6.10409 15.5144 5.79953 15.38 5.53728 15.488Z" fill="#A8A8A8"/>
<path d="M3.31196 16.4097C3.04929 16.5176 2.92939 16.8288 3.04267 17.1024C3.15685 17.3779 3.46051 17.5123 3.72228 17.4048C3.9841 17.2968 4.10394 16.987 3.99067 16.7111C3.87739 16.4366 3.57283 16.3008 3.31196 16.4097Z" fill="#A8A8A8"/>
<path d="M17.982 15.9835C18.1644 15.7429 18.1208 15.4022 17.8845 15.2237C17.6475 15.043 17.3076 15.0923 17.1247 15.3326C16.9431 15.5732 16.9868 15.913 17.223 16.0932C17.4601 16.273 17.7999 16.2237 17.982 15.9835Z" fill="#A8A8A8"/>
<path d="M15.5726 17.3765C15.3901 17.6172 15.4338 17.9569 15.6713 18.1363C15.9071 18.317 16.2469 18.2681 16.4289 18.0275C16.6114 17.7881 16.5678 17.4461 16.3315 17.2668C16.0944 17.0874 15.7546 17.1363 15.5726 17.3765Z" fill="#A8A8A8"/>
<path d="M14.8772 20.0684C15.0587 19.829 15.0151 19.4893 14.7789 19.3086C14.5417 19.1292 14.202 19.1786 14.0199 19.4188C13.8374 19.6581 13.8811 19.9993 14.1182 20.1795C14.3544 20.3593 14.6942 20.3099 14.8772 20.0684Z" fill="#A8A8A8"/>
<path d="M12.4682 21.4643C12.2857 21.7058 12.3293 22.0456 12.5664 22.2249C12.8027 22.4043 13.1425 22.3554 13.3245 22.1161C13.5082 21.8754 13.4642 21.5357 13.2271 21.3554C12.9908 21.1756 12.6511 21.2249 12.4682 21.4643Z" fill="#A8A8A8"/>
<path d="M10.915 23.5094C10.7325 23.7488 10.7775 24.0886 11.0133 24.2692C11.2495 24.4499 11.5893 24.3997 11.7722 24.159C11.9551 23.9197 11.911 23.5799 11.6739 23.3992C11.4378 23.2194 11.098 23.2688 10.915 23.5094Z" fill="#A8A8A8"/>
<path d="M19.4793 16.4639C19.2047 16.3507 18.8948 16.4714 18.7868 16.7337C18.6776 16.9941 18.8133 17.2978 19.0883 17.412C19.3629 17.5252 19.6727 17.4054 19.7807 17.1436C19.8887 16.8817 19.7538 16.5785 19.4793 16.4639Z" fill="#A8A8A8"/>
<path d="M18.5591 18.6916C18.2845 18.5783 17.9747 18.6982 17.8667 18.9609C17.7578 19.2218 17.8936 19.525 18.1681 19.6396C18.4427 19.7529 18.7525 19.6321 18.8605 19.3716C18.9685 19.1099 18.8337 18.8049 18.5591 18.6916Z" fill="#A8A8A8"/>
<path d="M17.64 20.9196C17.3655 20.8063 17.0552 20.9262 16.9463 21.1889C16.8383 21.4498 16.9741 21.7543 17.2477 21.8676C17.5232 21.9808 17.8335 21.861 17.941 21.5992C18.049 21.3375 17.9146 21.033 17.64 20.9196Z" fill="#A8A8A8"/>
<path d="M16.7198 23.1447C16.4453 23.0315 16.1354 23.1513 16.0261 23.4132C15.9186 23.6749 16.0544 23.9795 16.3289 24.0927C16.6035 24.206 16.9133 24.0852 17.0213 23.8247C17.1292 23.5626 16.9944 23.258 16.7198 23.1447Z" fill="#A8A8A8"/>
<path d="M15.7989 25.3728C15.5243 25.2595 15.2136 25.3794 15.1057 25.6411C14.9977 25.903 15.1321 26.2066 15.4071 26.3195C15.6817 26.4341 15.9923 26.3133 16.1003 26.0524C16.2083 25.7906 16.0739 25.486 15.7989 25.3728Z" fill="#A8A8A8"/>
<path d="M14.877 27.6008C14.6037 27.4875 14.2927 27.6074 14.1847 27.8692C14.0767 28.131 14.2116 28.4342 14.4861 28.5479C14.7607 28.6621 15.0719 28.5413 15.1798 28.2803C15.2874 28.0186 15.1529 27.7141 14.877 27.6008Z" fill="#A8A8A8"/>
<path d="M25.3707 7C24.0123 6.99957 22.773 7.55091 21.8806 8.44027L21.8802 8.43984L20.873 9.41958L22.1498 10.6955L23.1415 9.73161L23.1481 9.725C23.7184 9.15557 24.5002 8.80566 25.3707 8.80523C26.2415 8.80566 27.0216 9.15557 27.5933 9.72585C28.1635 10.297 28.5135 11.0771 28.5139 11.9484V28.0579H30.3191V11.9485C30.3187 9.21464 28.1041 7.00043 25.3707 7Z" fill="#A8A8A8"/>
<path d="M21.7582 11.0705L20.4898 9.80205L20.366 9.6782L15.852 9.67383L14.8477 10.6782L20.909 16.7395L21.9121 15.7347L21.9089 11.2208L21.7582 11.0705Z" fill="#A8A8A8"/>
</svg>
