<svg width="35" height="35" viewBox="0 0 35 35" fill="none" xmlns="http://www.w3.org/2000/svg">
<path d="M25.3876 7H7.655C6.68564 7 5.75597 7.38508 5.07053 8.07053C4.38508 8.75597 4 9.68564 4 10.655V27.8619C4 28.0832 4.08792 28.2955 4.24441 28.452C4.40091 28.6085 4.61316 28.6964 4.83448 28.6964H8.17238C8.363 28.7019 8.54978 28.642 8.70161 28.5266C8.85344 28.4112 8.96117 28.2473 9.00685 28.0622L9.65775 25.3585H23.3765L24.0274 28.0622C24.0731 28.2473 24.1808 28.4112 24.3327 28.5266C24.4845 28.642 24.6713 28.7019 24.8619 28.6964H28.1998C28.4211 28.6964 28.6334 28.6085 28.7899 28.452C28.9464 28.2955 29.0343 28.0832 29.0343 27.8619V10.655C29.0343 9.68708 28.6503 8.75868 27.9667 8.07347C27.2831 7.38827 26.3555 7.00221 25.3876 7ZM9.00685 23.6895H5.66895V19.5171H27.3653V23.6895H9.00685ZM9.84133 14.9609V14.0597C9.84346 13.9585 9.88459 13.8621 9.95612 13.7906C10.0276 13.7191 10.1241 13.6779 10.2252 13.6758H13.6298C13.731 13.6779 13.8274 13.7191 13.8989 13.7906C13.9705 13.8621 14.0116 13.9585 14.0137 14.0597V14.9609C14.0116 15.062 13.9705 15.1584 13.8989 15.23C13.8274 15.3015 13.731 15.3426 13.6298 15.3448H10.2252C10.1241 15.3426 10.0276 15.3015 9.95612 15.23C9.88459 15.1584 9.84346 15.062 9.84133 14.9609ZM8.43107 17.0137H24.6032C24.6718 17.0137 24.7376 17.041 24.7861 17.0895C24.8346 17.138 24.8619 17.2038 24.8619 17.2724V17.8482H8.17238V17.2724C8.17238 17.2038 8.19963 17.138 8.24815 17.0895C8.29666 17.041 8.36246 17.0137 8.43107 17.0137ZM19.0206 14.9609V14.0597C19.0227 13.9585 19.0638 13.8621 19.1353 13.7906C19.2069 13.7191 19.3033 13.6779 19.4044 13.6758H22.8091C22.9102 13.6779 23.0066 13.7191 23.0782 13.7906C23.1497 13.8621 23.1908 13.9585 23.1929 14.0597V14.9609C23.1908 15.062 23.1497 15.1584 23.0782 15.23C23.0066 15.3015 22.9102 15.3426 22.8091 15.3448H19.4044C19.3033 15.3426 19.2069 15.3015 19.1353 15.23C19.0638 15.1584 19.0227 15.062 19.0206 14.9609ZM5.66895 10.655C5.67115 10.1289 5.8811 9.62506 6.25308 9.25308C6.62506 8.8811 7.12895 8.67115 7.655 8.66895H25.3876C25.9129 8.67116 26.4159 8.88138 26.7866 9.25359C27.1572 9.62581 27.3653 10.1297 27.3653 10.655V17.8482H26.5308V17.2724C26.5369 16.8025 26.3703 16.3467 26.0627 15.9914C25.7551 15.6361 25.3278 15.406 24.8619 15.3448C24.8886 15.2101 24.9025 15.0732 24.9036 14.9359V14.0597C24.9037 13.7865 24.8492 13.5161 24.7435 13.2643C24.6377 13.0125 24.4827 12.7843 24.2877 12.5932C24.0926 12.402 23.8614 12.2516 23.6075 12.151C23.3536 12.0503 23.0822 12.0013 22.8091 12.0069H19.4044C19.1348 12.0069 18.8679 12.06 18.6188 12.1631C18.3698 12.2663 18.1435 12.4175 17.9529 12.6081C17.7622 12.7987 17.611 13.025 17.5079 13.2741C17.4047 13.5231 17.3516 13.7901 17.3516 14.0597V14.9609C17.3526 15.0899 17.3666 15.2185 17.3933 15.3448H15.6827C15.7094 15.2185 15.7234 15.0899 15.7244 14.9609V14.0597C15.7244 13.7865 15.67 13.5161 15.5642 13.2643C15.4585 13.0125 15.3035 12.7843 15.1085 12.5932C14.9134 12.402 14.6821 12.2516 14.4282 12.151C14.1744 12.0503 13.9029 12.0013 13.6298 12.0069H10.2252C9.68075 12.0069 9.15861 12.2231 8.77363 12.6081C8.38866 12.9931 8.17238 13.5152 8.17238 14.0597V14.9609C8.15965 15.0969 8.15965 15.2338 8.17238 15.3698C7.71074 15.4305 7.28692 15.657 6.97987 16.007C6.67283 16.3571 6.5035 16.8068 6.50343 17.2724V17.8482H5.66895V10.655ZM7.52149 27.0274H5.66895V25.3585H7.93872L7.52149 27.0274ZM27.3653 27.0274H25.5128L25.0955 25.3585H27.3653V27.0274Z" fill="#A8A8A8"/>
</svg>
