<svg width="35" height="35" viewBox="0 0 35 35" fill="none" xmlns="http://www.w3.org/2000/svg">
<path d="M14.8011 20.194L27.6435 7.35647M15.1662 20.7714L18.0782 26.5955C18.7819 28.0029 19.1338 28.7066 19.577 28.8953C19.9617 29.0591 20.4015 29.0294 20.7608 28.8155C21.1747 28.5691 21.4289 27.8244 21.9374 26.3353L27.4395 10.222C27.8826 8.92446 28.104 8.27569 27.9524 7.84652C27.8205 7.47316 27.5269 7.17947 27.1536 7.04757C26.7243 6.89594 26.0756 7.11747 24.778 7.56052L8.66468 13.0626C7.17554 13.5711 6.43097 13.8254 6.18449 14.2393C5.97058 14.5985 5.94094 15.0383 6.1047 15.4229C6.29341 15.8661 6.99713 16.2181 8.40457 16.9217L14.2286 19.8338C14.4606 19.9498 14.5766 20.0077 14.6769 20.0852C14.7662 20.154 14.8461 20.2339 14.9147 20.323C14.9923 20.4235 15.0502 20.5394 15.1662 20.7714Z" stroke="white" stroke-linecap="round" stroke-linejoin="round"/>
</svg>
