<svg width="35" height="35" viewBox="0 0 35 35" fill="none" xmlns="http://www.w3.org/2000/svg">
<path d="M30.9933 17.2124C30.7172 17.6177 30.4747 18.0504 30.165 18.4351C28.5084 20.4888 26.5757 22.206 24.2322 23.408C22.6362 24.2323 20.9527 24.7612 19.1682 24.9329C15.7001 25.2695 12.5553 24.3284 9.68653 22.3709C7.82118 21.1001 6.2656 19.4997 4.90531 17.6864C4.56861 17.2399 4.56861 16.7522 4.90531 16.3126C6.46763 14.2246 8.29931 12.4249 10.535 11.0855C12.3802 9.97968 14.36 9.27907 16.5082 9.06614C19.6261 8.76392 22.5083 9.50574 25.1885 11.1199C27.404 12.4593 29.2155 14.252 30.7643 16.3264C30.8653 16.4638 30.9259 16.6286 31 16.7866C30.9933 16.9308 30.9933 17.0682 30.9933 17.2124ZM18.0032 22.6387C21.0066 22.5769 23.4107 19.9737 23.3568 16.8278C23.3029 13.7506 20.7439 11.2985 17.6463 11.3603C14.6496 11.4152 12.232 14.0391 12.2926 17.1712C12.3465 20.2484 14.9055 22.7006 18.0032 22.6387Z" fill="#D0D0D0"/>
<path d="M14.844 16.9925C14.8305 18.641 16.1504 20.0216 17.7531 20.0423C19.4165 20.0629 20.797 18.696 20.8037 17.0269C20.8104 15.3578 19.4973 13.984 17.8811 13.9634C16.2245 13.9428 14.8507 15.3097 14.844 16.9925Z" fill="white"/>
<path d="M14.8439 16.9926C14.8574 15.3097 16.2244 13.9429 17.881 13.9566C19.4972 13.9703 20.8171 15.3509 20.8036 17.02C20.7969 18.696 19.4164 20.056 17.7531 20.0354C16.1503 20.0217 14.8305 18.6411 14.8439 16.9926Z" fill="#D0D0D0"/>
</svg>
