<svg width="35" height="35" viewBox="0 0 35 35" fill="none" xmlns="http://www.w3.org/2000/svg">
<path fill-rule="evenodd" clip-rule="evenodd" d="M13.5477 7.00013C13.5873 7.00021 13.627 7.00028 13.6667 7.00028C13.7064 7.00028 13.746 7.00021 13.7856 7.00013C14.2567 6.99933 14.7198 6.99855 15.1323 7.11207C16.2347 7.41548 17.0957 8.29991 17.3911 9.43221C17.5017 9.85593 17.5009 10.3316 17.5001 10.8155C17.5001 10.8562 17.5 10.8969 17.5 10.9377H27.7222C28.4279 10.9377 29 11.5253 29 12.2501C29 12.975 28.4279 13.5626 27.7222 13.5626H17.5C17.5 13.6034 17.5001 13.6441 17.5001 13.6848C17.5009 14.1687 17.5017 14.6444 17.3911 15.0681C17.0957 16.2004 16.2347 17.0849 15.1323 17.3882C14.7198 17.5017 14.2567 17.5009 13.7856 17.5001C13.746 17.5001 13.7064 17.5 13.6667 17.5C13.627 17.5 13.5873 17.5001 13.5477 17.5001C13.0766 17.5009 12.6135 17.5017 12.201 17.3882C11.0986 17.0849 10.2376 16.2004 9.94219 15.0681C9.83165 14.6443 9.83241 14.1687 9.83321 13.6848C9.83327 13.6441 9.83333 13.6034 9.83333 13.5626H7.27778C6.57209 13.5626 6 12.975 6 12.2501C6 11.5253 6.57209 10.9377 7.27778 10.9377H9.83333C9.83333 10.8969 9.83327 10.8562 9.83321 10.8155C9.83241 10.3316 9.83165 9.85593 9.94219 9.43221C10.2376 8.29991 11.0986 7.41548 12.201 7.11207C12.6135 6.99855 13.0766 6.99933 13.5477 7.00013ZM13.026 9.63223C12.8897 9.63861 12.8576 9.64889 12.8624 9.64756C12.6419 9.70825 12.4697 9.88513 12.4107 10.1116C12.4096 10.1162 12.4012 10.1565 12.3957 10.2796C12.3892 10.4266 12.3889 10.6206 12.3889 10.9377V13.5626C12.3889 13.8796 12.3892 14.0736 12.3957 14.2207C12.4019 14.3607 12.4119 14.3936 12.4107 14.3887C12.4697 14.6151 12.6419 14.792 12.8624 14.8527C12.8576 14.8514 12.8897 14.8617 13.026 14.8681C13.1691 14.8748 13.358 14.8751 13.6667 14.8751C13.9754 14.8751 14.1642 14.8748 14.3073 14.8681C14.4436 14.8617 14.4756 14.8514 14.4709 14.8527C14.6914 14.792 14.8636 14.6151 14.9227 14.3887C14.9214 14.3936 14.9314 14.3607 14.9375 14.2207C14.9442 14.0736 14.9444 13.8796 14.9444 13.5626V10.9377C14.9444 10.6206 14.9442 10.4266 14.9375 10.2796C14.9444 9.74334 14.4696 9.6203 14.4709 9.62521M13.026 9.63223C13.1691 9.62553 13.358 9.62521 13.6667 9.62521L13.026 9.63223ZM13.6667 9.62521C13.9754 9.62521 14.1642 9.62553 14.3073 9.63223L13.6667 9.62521ZM14.3073 9.63223C14.4272 9.63784 14.4664 9.64646 14.4709 9.64756L14.3073 9.63223ZM21.2144 17.4999C21.254 17.5 21.2936 17.5 21.3333 17.5C21.3731 17.5 21.4127 17.5 21.4523 17.4999C21.9234 17.4991 22.3865 17.4983 22.7989 17.6118C23.9014 17.9153 24.7624 18.7996 25.0578 19.932C25.1683 20.3557 25.1676 20.8313 25.1668 21.3152C25.1668 21.3559 25.1667 21.3966 25.1667 21.4374H27.7222C28.4279 21.4374 29 22.025 29 22.7499C29 23.4747 28.4279 24.0623 27.7222 24.0623H25.1667C25.1667 24.1032 25.1668 24.1438 25.1668 24.1845C25.1676 24.6684 25.1683 25.1441 25.0578 25.5679C24.7624 26.7001 23.9014 27.5846 22.7989 27.8879C22.3865 28.0014 21.9234 28.0007 21.4523 27.9999C21.4127 27.9999 21.3731 27.9997 21.3333 27.9997C21.2936 27.9997 21.254 27.9999 21.2144 27.9999C20.7433 28.0007 20.2802 28.0014 19.8677 27.8879C18.7653 27.5846 17.9043 26.7001 17.6089 25.5679C17.4983 25.1441 17.4991 24.6684 17.4999 24.1845C17.4999 24.1438 17.5 24.1032 17.5 24.0623H7.27778C6.57209 24.0623 6 23.4747 6 22.7499C6 22.025 6.57209 21.4374 7.27778 21.4374H17.5C17.5 21.3967 17.4999 21.3559 17.4999 21.3152C17.4991 20.8313 17.4983 20.3557 17.6089 19.932C17.9043 18.7996 18.7653 17.9153 19.8677 17.6118C20.2802 17.4983 20.7433 17.4991 21.2144 17.4999ZM20.6927 20.132C20.5564 20.1383 20.5244 20.1486 20.5291 20.1472C20.3086 20.208 20.1364 20.3849 20.0773 20.6113C20.0786 20.6065 20.0686 20.6394 20.0625 20.7793C20.0558 20.9263 20.0556 21.1204 20.0556 21.4374V24.0623C20.0556 24.3794 20.0558 24.5734 20.0625 24.7204C20.0686 24.8604 20.0786 24.8934 20.0773 24.8884C20.1364 25.1149 20.3086 25.2917 20.5291 25.3525C20.5244 25.3512 20.5564 25.3614 20.6927 25.3678C20.8358 25.3745 21.0246 25.3748 21.3333 25.3748C21.642 25.3748 21.8309 25.3745 21.974 25.3678C22.1102 25.3614 22.1423 25.3512 22.1376 25.3525C22.3581 25.2917 22.5302 25.1149 22.5894 24.8884C22.5881 24.8934 22.5981 24.8604 22.6042 24.7204C22.6109 24.5734 22.6111 24.3794 22.6111 24.0623V21.4374C22.6111 21.1204 22.6109 20.9263 22.6042 20.7793C22.5981 20.6394 22.5881 20.6065 22.5894 20.6113C22.5302 20.3849 22.3581 20.208 22.1376 20.1472C22.1423 20.1486 22.1102 20.1383 21.974 20.132C21.8309 20.1252 21.642 20.1249 21.3333 20.1249C21.0246 20.1249 20.8358 20.1252 20.6927 20.132Z" fill="#801E5B"/>
</svg>
