<svg width="35" height="35" viewBox="0 0 35 35" fill="none" xmlns="http://www.w3.org/2000/svg">
<path d="M17 5C12.0297 5 8 9.19766 8 14.375C8 16.4137 8.64163 18.2844 9.70813 19.8164C9.72725 19.8531 9.73025 19.8941 9.752 19.9293L15.752 29.3043C16.0303 29.7391 16.499 30 17 30C17.501 30 17.9697 29.7391 18.248 29.3043L24.248 19.9293C24.2701 19.8941 24.2727 19.8531 24.2919 19.8164C25.3584 18.2844 26 16.4137 26 14.375C26 9.19766 21.9703 5 17 5ZM17 17.5C15.3432 17.5 14 16.1008 14 14.375C14 12.6492 15.3432 11.25 17 11.25C18.6567 11.25 20 12.6492 20 14.375C20 16.1008 18.6567 17.5 17 17.5Z" fill="white"/>
</svg>
