<svg width="35" height="35" viewBox="0 0 35 35" fill="none" xmlns="http://www.w3.org/2000/svg">
<path d="M17.4653 29.7341C17.172 29.906 16.828 29.906 16.5347 29.7341C14.1065 28.3109 3 21.35 3 13.0909C3 11.4517 3.58309 9.86306 4.65007 8.59536C5.71705 7.32766 7.202 6.45919 8.85227 6.13771C10.5026 5.81623 12.2162 6.06159 13.7017 6.83206C15.1872 7.60252 16.3527 8.8505 17 10.3636L-nan -nanL-nan -nanL17 10.3636C17.6473 8.8505 18.8128 7.60252 20.2983 6.83206C21.7838 6.06159 23.4974 5.81623 25.1477 6.13771C26.798 6.45919 28.283 7.32766 29.3499 8.59536C30.4169 9.86306 31 11.4517 31 13.0909C31 21.35 19.8935 28.3109 17.4653 29.7341Z" stroke="#841D5D" stroke-linecap="round" stroke-linejoin="round"/>
</svg>
