<svg width="35" height="35" viewBox="0 0 35 35" fill="none" xmlns="http://www.w3.org/2000/svg">
<path d="M32 17.7957V20.0013C32 25.6574 32 28.4856 30.3012 30.2427C28.6025 32 25.8682 32 20.4 32H14.6C9.1317 32 6.39757 32 4.69878 30.2427C3 28.4856 3 25.6574 3 20.0013V17.7957C3 14.4775 3 12.8184 3.75284 11.443C4.50568 10.0676 5.88108 9.21399 8.63184 7.50679L11.5318 5.70696C14.4396 3.90232 15.8935 3 17.5 3C19.1065 3 20.5604 3.90232 23.4682 5.70696L26.3682 7.50677C29.119 9.21399 30.4943 10.0676 31.2472 11.443" stroke="#1C274C" stroke-linecap="round"/>
<path d="M21.7648 26.0293H13.2354" stroke="#1C274C" stroke-linecap="round"/>
</svg>
