<svg width="35" height="35" viewBox="0 0 35 35" fill="none" xmlns="http://www.w3.org/2000/svg">
<path d="M17.9597 28.8357C17.828 28.945 17.6636 29 17.5 29C17.3364 29 17.172 28.945 17.0403 28.8357C16.7116 28.5642 9 22.1103 9 15.2281C9 10.6906 12.813 7 17.5 7C22.187 7 26 10.6906 26 15.2281C26 22.1103 18.2884 28.5642 17.9597 28.8357ZM17.5 8.37135C13.5942 8.37135 10.4167 11.4474 10.4167 15.2281C10.4167 20.5623 15.8616 25.9026 17.5 27.3881C19.1377 25.9026 24.5833 20.5623 24.5833 15.2281C24.5833 11.4474 21.4057 8.37135 17.5 8.37135ZM17.5 19.371C15.1561 19.371 13.25 17.5254 13.25 15.257C13.25 12.9879 15.1561 11.1429 17.5 11.1429C19.8439 11.1429 21.75 12.9879 21.75 15.257C21.75 17.5254 19.8439 19.371 17.5 19.371ZM17.5 12.5143C15.9374 12.5143 14.6667 13.744 14.6667 15.257C14.6667 16.7692 15.9374 17.9997 17.5 17.9997C19.0626 17.9997 20.3333 16.7692 20.3333 15.257C20.3333 13.744 19.0626 12.5143 17.5 12.5143Z" fill="#042E60"/>
</svg>
