<svg width="35" height="35" viewBox="0 0 35 35" fill="none" xmlns="http://www.w3.org/2000/svg">
<path d="M28.5 11.6503C28.5 10.3885 28.5 9.75754 28.1461 9.28254C27.7921 8.80754 27.1734 8.60801 25.9359 8.20897L24.4799 7.73951C22.771 7.18849 21.9166 6.91298 21.0564 7.02441C20.1961 7.13585 19.4468 7.61912 17.9479 8.58568L16.22 9.70004C15.0499 10.4546 14.4649 10.8319 13.8086 10.982C13.5675 11.0371 13.3214 11.069 13.0739 11.0771C12.3999 11.0994 11.7328 10.8843 10.3988 10.4541C8.65136 9.89071 7.77766 9.60898 7.11286 9.89507C6.87684 9.99664 6.66505 10.1443 6.4908 10.3288C6 10.8484 6 11.7393 6 13.5211V18.4354M28.5 16.2908V21.479C28.5 23.2608 28.5 24.1517 28.0093 24.6713C27.835 24.8558 27.6231 25.0034 27.3871 25.105C26.7224 25.3911 25.8486 25.1093 24.1013 24.5459C22.7671 24.1158 22.1001 23.9006 21.4261 23.9229C21.1786 23.9311 20.9325 23.9629 20.6915 24.0181C20.0351 24.1681 19.4501 24.5454 18.28 25.3L16.5521 26.4143C15.0532 27.3809 14.3039 27.8642 13.4437 27.9756C12.5834 28.0871 11.729 27.8115 10.0201 27.2605L8.56415 26.7911C7.32661 26.392 6.70784 26.1925 6.35392 25.7174C6.01884 25.2677 6.001 24.6783 6.00005 23.5459" stroke="#1C274C" stroke-linecap="round"/>
<path d="M21 7V11.2778M21 23.5V16.1667" stroke="#1C274C" stroke-linecap="round"/>
<path d="M13.5 28V23.7222M13.5 11.5V18.8333" stroke="#1C274C" stroke-linecap="round"/>
</svg>
