<svg width="35" height="35" viewBox="0 0 35 35" fill="none" xmlns="http://www.w3.org/2000/svg">
<mask id="mask0_5334_313" style="mask-type:luminance" maskUnits="userSpaceOnUse" x="9" y="15" width="16" height="4">
<path d="M24.4707 15.041H9.4707V18.041H24.4707V15.041Z" fill="white"/>
</mask>
<g mask="url(#mask0_5334_313)">
<path d="M22.9717 18.0437C22.7767 18.0461 22.583 18.0104 22.4017 17.9387C22.2173 17.8608 22.0495 17.7489 21.9067 17.6088C21.7718 17.4705 21.6647 17.3074 21.5917 17.1286C21.5161 16.9426 21.4754 16.7443 21.4717 16.5436C21.4733 16.15 21.6296 15.7731 21.9067 15.4936C22.0454 15.3486 22.2145 15.2359 22.4017 15.1638C22.6763 15.0507 22.9783 15.0217 23.2693 15.0804C23.5603 15.1392 23.8274 15.283 24.0367 15.4936C24.3137 15.7731 24.47 16.15 24.4717 16.5436C24.4679 16.7443 24.4273 16.9426 24.3517 17.1286C24.2786 17.3074 24.1715 17.4705 24.0367 17.6088C23.8966 17.7477 23.7302 17.8577 23.5475 17.9324C23.3648 18.0069 23.1691 18.0447 22.9717 18.0437Z" fill="#1C274C"/>
<path d="M16.9707 18.0437C16.7757 18.0461 16.5821 18.0104 16.4007 17.9387C16.2164 17.8608 16.0485 17.7489 15.9057 17.6088C15.7709 17.4705 15.6638 17.3074 15.5907 17.1286C15.5151 16.9426 15.4745 16.7443 15.4707 16.5436C15.4724 16.15 15.6287 15.7731 15.9057 15.4936C16.0445 15.3486 16.2135 15.2359 16.4007 15.1638C16.6754 15.0507 16.9773 15.0217 17.2683 15.0804C17.5593 15.1392 17.8265 15.283 18.0357 15.4936C18.3128 15.7731 18.4691 16.15 18.4707 16.5436C18.467 16.7443 18.4263 16.9426 18.3507 17.1286C18.2777 17.3074 18.1706 17.4705 18.0357 17.6088C17.8956 17.7477 17.7293 17.8577 17.5466 17.9324C17.3639 18.0069 17.1681 18.0447 16.9707 18.0437Z" fill="#1C274C"/>
<path d="M10.9707 18.0437C10.7757 18.0461 10.5821 18.0104 10.4007 17.9387C10.2164 17.8608 10.0485 17.7489 9.90572 17.6088C9.77079 17.4705 9.6638 17.3074 9.59069 17.1286C9.5151 16.9426 9.47445 16.7443 9.4707 16.5436C9.47235 16.15 9.62859 15.7731 9.90572 15.4936C10.0445 15.3486 10.2134 15.2359 10.4007 15.1638C10.6753 15.0507 10.9772 15.0217 11.2683 15.0804C11.5594 15.1392 11.8264 15.283 12.0357 15.4936C12.3128 15.7731 12.4691 16.15 12.4707 16.5436C12.467 16.7443 12.4263 16.9426 12.3507 17.1286C12.2776 17.3074 12.1706 17.4705 12.0357 17.6088C11.8955 17.7477 11.7293 17.8577 11.5466 17.9324C11.3638 18.0069 11.1681 18.0447 10.9707 18.0437Z" fill="#1C274C"/>
</g>
<path d="M6.46998 24.8356V29.8527C6.46954 30.467 6.64929 31.0679 6.98698 31.5813C7.32468 32.0947 7.80562 32.4983 8.37034 32.742C8.93507 32.9856 9.55884 33.0589 10.1648 32.9525C10.7707 32.8463 11.3323 32.5654 11.78 32.1442L15.695 28.46H17C25.28 28.46 32 22.769 32 15.73C32 8.69106 25.28 3 17 3C8.72001 3 2 8.70604 2 15.73C2.03371 17.4805 2.45462 19.2017 3.23258 20.7707C4.01054 22.3397 5.1263 23.7176 6.50001 24.8056L6.46998 24.8356Z" stroke="#384262" stroke-linecap="round" stroke-linejoin="round"/>
</svg>
