<svg width="35" height="35" viewBox="0 0 35 35" fill="none" xmlns="http://www.w3.org/2000/svg">
<path d="M27.1732 13.4644H6.68301C6.50186 13.4644 6.32814 13.5283 6.20005 13.6422C6.07196 13.756 6 13.9105 6 14.0715V23.7853C6 23.9464 6.07196 24.1008 6.20005 24.2146C6.32814 24.3285 6.50186 24.3925 6.68301 24.3925H27.1732C27.3543 24.3925 27.5281 24.3285 27.6562 24.2146C27.7842 24.1008 27.8562 23.9464 27.8562 23.7853V14.0715C27.8562 13.9105 27.7842 13.756 27.6562 13.6422C27.5281 13.5283 27.3543 13.4644 27.1732 13.4644ZM23.1366 23.1782H10.7196C10.5772 22.4336 10.178 21.7468 9.57721 21.2127C8.97639 20.6787 8.20368 20.3238 7.36601 20.1973V17.6595C8.20368 17.533 8.97639 17.1782 9.57721 16.6441C10.178 16.11 10.5772 15.4232 10.7196 14.6786H23.1366C23.279 15.4232 23.6782 16.11 24.279 16.6441C24.8798 17.1782 25.6525 17.533 26.4902 17.6595V20.1973C25.6525 20.3238 24.8798 20.6787 24.279 21.2127C23.6782 21.7468 23.279 22.4336 23.1366 23.1782ZM26.4902 16.4149C26.0204 16.3059 25.5917 16.0876 25.2484 15.7824C24.9051 15.4772 24.6594 15.0962 24.5368 14.6786H26.4902V16.4149ZM9.31941 14.6786C9.19677 15.0962 8.95114 15.4772 8.6078 15.7824C8.26446 16.0876 7.83582 16.3059 7.36601 16.4149V14.6786H9.31941ZM7.36601 21.4419C7.83582 21.5509 8.26446 21.7692 8.6078 22.0744C8.95114 22.3796 9.19677 22.7606 9.31941 23.1782H7.36601V21.4419ZM24.5368 23.1782C24.6594 22.7606 24.9051 22.3796 25.2484 22.0744C25.5917 21.7692 26.0204 21.5509 26.4902 21.4419V23.1782H24.5368Z" fill="#042E60"/>
<path d="M11.3205 8.06758C11.2491 8.03444 11.1701 8.01294 11.0882 8.0043C11.0064 7.99566 10.9232 8.00006 10.8434 8.01724C10.6826 8.05074 10.5449 8.13401 10.4605 8.24878L9.20487 9.97527C9.12162 10.0914 9.09932 10.2293 9.14288 10.3586C9.18645 10.488 9.2923 10.5981 9.43716 10.6649C9.58201 10.7316 9.75401 10.7495 9.9153 10.7146C10.0766 10.6796 10.214 10.5948 10.2972 10.4786L11.2389 9.19005L14.4219 10.6649C14.5667 10.7316 14.7387 10.7495 14.9 10.7146C15.0613 10.6796 15.1987 10.5948 15.2819 10.4786C15.3652 10.3625 15.3875 10.2246 15.3439 10.0953C15.3004 9.96593 15.1945 9.85578 15.0497 9.78903L11.3205 8.06758Z" fill="#042E60"/>
<path d="M21.2854 27.3597C21.3595 27.4001 21.4439 27.4218 21.53 27.4226C21.5721 27.4291 21.6151 27.4291 21.6572 27.4226C21.7826 27.3927 21.8899 27.3183 21.9557 27.2159L22.9342 25.6746C22.9991 25.5709 23.0165 25.4478 22.9825 25.3324C22.9486 25.2169 22.8661 25.1186 22.7532 25.059C22.6403 24.9994 22.5063 24.9834 22.3805 25.0146C22.2548 25.0458 22.1478 25.1216 22.0829 25.2252L21.3588 26.3756L18.8782 25.059C18.7653 24.9994 18.6312 24.9834 18.5055 25.0146C18.3798 25.0458 18.2728 25.1216 18.2079 25.2252C18.143 25.3289 18.1256 25.452 18.1596 25.5675C18.1935 25.6829 18.276 25.7813 18.3889 25.8409L21.2854 27.3597Z" fill="#042E60"/>
<path d="M16.9286 16.1963C16.0023 16.1963 15.0968 16.3565 14.3266 16.6567C13.5564 16.9569 12.9561 17.3836 12.6016 17.8828C12.2471 18.382 12.1544 18.9313 12.3351 19.4613C12.5158 19.9913 12.9619 20.4781 13.6169 20.8601C14.2719 21.2422 15.1064 21.5024 16.0149 21.6078C16.9234 21.7133 17.8651 21.6592 18.7209 21.4524C19.5767 21.2456 20.3081 20.8954 20.8228 20.4461C21.3374 19.9969 21.6121 19.4687 21.6121 18.9283C21.6121 18.2037 21.1186 17.5088 20.2403 16.9965C19.362 16.4841 18.1707 16.1963 16.9286 16.1963ZM16.9286 20.7497C16.3111 20.7497 15.7074 20.6428 15.1939 20.4427C14.6805 20.2426 14.2803 19.9581 14.0439 19.6253C13.8076 19.2925 13.7458 18.9263 13.8663 18.573C13.9867 18.2197 14.2841 17.8951 14.7208 17.6404C15.1574 17.3857 15.7138 17.2122 16.3195 17.142C16.9251 17.0717 17.5529 17.1078 18.1234 17.2456C18.694 17.3835 19.1816 17.6169 19.5247 17.9164C19.8678 18.2159 20.0509 18.5681 20.0509 18.9283C20.0509 19.4114 19.7219 19.8746 19.1364 20.2162C18.5509 20.5578 17.7567 20.7497 16.9286 20.7497Z" fill="#042E60"/>
</svg>
