<svg width="35" height="35" viewBox="0 0 35 35" fill="none" xmlns="http://www.w3.org/2000/svg">
<path d="M24.9666 14.94V14.1229C24.9666 9.63675 21.5194 6 17.2672 6C13.0149 6 9.5678 9.63675 9.5678 14.1229V14.94C9.5678 15.9205 9.29269 16.8791 8.77714 17.6949L7.51377 19.6942C6.35981 21.5203 7.24077 24.0025 9.24779 24.58C14.4982 26.0907 20.0363 26.0907 25.2866 24.58C27.2937 24.0025 28.1747 21.5203 27.0206 19.6942L25.7573 17.6949C25.2418 16.8791 24.9666 15.9205 24.9666 14.94Z" stroke="#1C274C"/>
<path d="M11.9287 25.7148C12.7059 27.629 14.8028 29.0004 17.2677 29.0004C19.7325 29.0004 21.8295 27.629 22.6066 25.7148" stroke="#1C274C" stroke-linecap="round"/>
</svg>
