<svg width="35" height="35" viewBox="0 0 35 35" fill="none" xmlns="http://www.w3.org/2000/svg">
<path d="M16.6464 14.7495C15.5825 14.7495 14.7168 15.6153 14.7168 16.6791C14.7168 17.7429 15.5825 18.6087 16.6464 18.6087C17.7102 18.6087 18.5759 17.7429 18.5759 16.6791C18.5759 15.6153 17.7102 14.7495 16.6464 14.7495ZM16.6464 17.6439C16.1135 17.6439 15.6816 17.212 15.6816 16.6791C15.6816 16.1462 16.1135 15.7143 16.6464 15.7143C17.1793 15.7143 17.6112 16.1462 17.6112 16.6791C17.6112 17.212 17.1793 17.6439 16.6464 17.6439Z" fill="#787878"/>
<path d="M26.2264 23.0744L24.428 18.5785L25.2809 16.0195C25.379 15.7253 25.3297 15.4017 25.1484 15.1502C24.9673 14.8988 24.6759 14.7495 24.3659 14.7495H20.5068C20.1967 14.7495 19.9054 14.8987 19.724 15.1502C19.5426 15.4017 19.4934 15.7253 19.5915 16.0195L20.4444 18.5785L19.1605 21.7883L18.5482 19.3394C18.4408 18.91 18.0552 18.6087 17.6124 18.6087H16.6476H15.6828C15.24 18.6087 14.8544 18.91 14.747 19.3394L14.5624 20.0771L13.7379 15.5416C13.6546 15.083 13.2548 14.7495 12.7885 14.7495H8.92938C8.46308 14.7495 8.06364 15.083 7.98035 15.5419L7.01557 20.8482C6.96443 21.1296 7.04067 21.4194 7.22398 21.639C7.40729 21.8587 7.67871 21.9854 7.9646 21.9854H8.58108L8.93259 26.4034C8.97246 26.9049 9.39086 27.2917 9.89413 27.2917H11.8237C12.327 27.2917 12.7457 26.9049 12.7856 26.4035L13.1368 21.9854H13.7533C13.8761 21.9854 13.9932 21.9517 14.1048 21.9073L13.7819 23.1988C13.7099 23.487 13.7745 23.7925 13.9575 24.0266C14.1405 24.2604 14.4209 24.3974 14.7181 24.3974V26.327C14.7181 26.8599 15.1499 27.2917 15.6828 27.2917H17.6124C18.1453 27.2917 18.5772 26.8599 18.5772 26.327V24.3974C18.7483 24.3974 18.9068 24.3414 19.0516 24.2581C19.1985 24.3456 19.3658 24.3974 19.542 24.3974H20.5068V26.327C20.5068 26.8599 20.9387 27.2917 21.4715 27.2917H23.4011C23.934 27.2917 24.3659 26.8599 24.3659 26.327V24.3974H25.3307C25.651 24.3974 25.9501 24.2385 26.1295 23.9735C26.309 23.7086 26.3453 23.3715 26.2264 23.0744ZM12.2456 21.0206L11.8237 26.327H9.89413L9.47223 21.0206H7.96456L8.92935 15.7143H12.7885L13.7533 21.0206H12.2456ZM17.6124 23.4326V26.327H15.6828V23.4326H14.7181L15.6828 19.5735H17.6124L18.5772 23.4326H17.6124ZM23.4011 23.4326V26.327H21.4715V23.4326H19.542L21.4715 18.6087L20.5068 15.7143H24.3659L23.4011 18.6087L25.3307 23.4326H23.4011Z" fill="#787878"/>
<path d="M22.4354 8C20.8393 8 19.541 9.29828 19.541 10.8944C19.541 12.4904 20.8393 13.7887 22.4354 13.7887C24.0314 13.7887 25.3297 12.4904 25.3297 10.8944C25.3297 9.29828 24.0314 8 22.4354 8ZM22.4354 12.8239C21.3696 12.8239 20.5058 11.9601 20.5058 10.8944C20.5058 9.82861 21.3696 8.96478 22.4354 8.96478C23.5011 8.96478 24.3649 9.82861 24.3649 10.8944C24.3649 11.9601 23.5012 12.8239 22.4354 12.8239Z" fill="#787878"/>
<path d="M10.8582 8C9.26248 8 7.96387 9.29828 7.96387 10.8944C7.96387 12.4904 9.26248 13.7887 10.8582 13.7887C12.4543 13.7887 13.7526 12.4904 13.7526 10.8944C13.7526 9.29828 12.4543 8 10.8582 8ZM10.8582 12.8239C9.79247 12.8239 8.92865 11.9601 8.92865 10.8944C8.92865 9.82861 9.79247 8.96478 10.8582 8.96478C11.924 8.96478 12.7878 9.82861 12.7878 10.8944C12.7878 11.9601 11.924 12.8239 10.8582 12.8239Z" fill="#787878"/>
</svg>
