<svg width="35" height="35" viewBox="0 0 35 35" fill="none" xmlns="http://www.w3.org/2000/svg">
<path d="M23.9286 26.95V28C24.5203 28 25 27.5299 25 26.95H23.9286ZM11.0714 26.95H10C10 27.5299 10.4797 28 11.0714 28V26.95ZM14.2857 11.2C13.694 11.2 13.2143 11.6701 13.2143 12.25C13.2143 12.8299 13.694 13.3 14.2857 13.3V11.2ZM15.3571 13.3C15.9489 13.3 16.4286 12.8299 16.4286 12.25C16.4286 11.6701 15.9489 11.2 15.3571 11.2V13.3ZM14.2857 14.35C13.694 14.35 13.2143 14.8201 13.2143 15.4C13.2143 15.9799 13.694 16.45 14.2857 16.45V14.35ZM15.3571 16.45C15.9489 16.45 16.4286 15.9799 16.4286 15.4C16.4286 14.8201 15.9489 14.35 15.3571 14.35V16.45ZM19.6429 14.35C19.0511 14.35 18.5714 14.8201 18.5714 15.4C18.5714 15.9799 19.0511 16.45 19.6429 16.45V14.35ZM20.7143 16.45C21.306 16.45 21.7857 15.9799 21.7857 15.4C21.7857 14.8201 21.306 14.35 20.7143 14.35V16.45ZM19.6429 17.5C19.0511 17.5 18.5714 17.9701 18.5714 18.55C18.5714 19.1299 19.0511 19.6 19.6429 19.6V17.5ZM20.7143 19.6C21.306 19.6 21.7857 19.1299 21.7857 18.55C21.7857 17.9701 21.306 17.5 20.7143 17.5V19.6ZM14.2857 17.5C13.694 17.5 13.2143 17.9701 13.2143 18.55C13.2143 19.1299 13.694 19.6 14.2857 19.6V17.5ZM15.3571 19.6C15.9489 19.6 16.4286 19.1299 16.4286 18.55C16.4286 17.9701 15.9489 17.5 15.3571 17.5V19.6ZM19.6429 11.2C19.0511 11.2 18.5714 11.6701 18.5714 12.25C18.5714 12.8299 19.0511 13.3 19.6429 13.3V11.2ZM20.7143 13.3C21.306 13.3 21.7857 12.8299 21.7857 12.25C21.7857 11.6701 21.306 11.2 20.7143 11.2V13.3ZM12.7857 9.1H22.2143V7.00001H12.7857V9.1ZM22.8571 9.73V26.95H25V9.73H22.8571ZM23.9286 25.9H11.0714V28H23.9286V25.9ZM12.1429 26.95V9.73H10V26.95H12.1429ZM22.2143 9.1C22.532 9.1 22.7059 9.10082 22.8308 9.11082C22.9432 9.11982 22.9187 9.13077 22.8571 9.1L23.83 7.22889C23.5392 7.08368 23.2501 7.03741 23.0052 7.0178C22.7728 6.99919 22.4966 7.00001 22.2143 7.00001V9.1ZM25 9.73C25 9.4533 25.0009 9.18263 24.9819 8.95486C24.9619 8.71484 24.9146 8.43162 24.7664 8.14663L22.8571 9.1C22.8257 9.03962 22.8369 9.01571 22.8461 9.12587C22.8563 9.24829 22.8571 9.41865 22.8571 9.73H25ZM22.8571 9.1L24.7664 8.14663C24.561 7.75149 24.2332 7.43022 23.83 7.22889L22.8571 9.1ZM12.7857 7.00001C12.5034 7.00001 12.2272 6.99919 11.9948 7.0178C11.7498 7.03741 11.4608 7.08368 11.17 7.22889L12.1429 9.1C12.0812 9.13077 12.0568 9.11982 12.1693 9.11082C12.2942 9.10082 12.468 9.1 12.7857 9.1V7.00001ZM12.1429 9.73C12.1429 9.41865 12.1437 9.24829 12.1539 9.12587C12.1631 9.01571 12.1743 9.03962 12.1429 9.1L10.2336 8.14663C10.0854 8.43162 10.0382 8.71484 10.0182 8.95486C9.99917 9.18263 10 9.4533 10 9.73H12.1429ZM11.17 7.22889C10.7668 7.43022 10.439 7.75148 10.2336 8.14663L12.1429 9.1L11.17 7.22889ZM14.2857 13.3H15.3571V11.2H14.2857V13.3ZM14.2857 16.45H15.3571V14.35H14.2857V16.45ZM19.6429 16.45H20.7143V14.35H19.6429V16.45ZM19.6429 19.6H20.7143V17.5H19.6429V19.6ZM14.2857 19.6H15.3571V17.5H14.2857V19.6ZM19.6429 13.3H20.7143V11.2H19.6429V13.3ZM18.5714 23.8V26.95H20.7143V23.8H18.5714ZM16.4286 26.95V23.8H14.2857V26.95H16.4286ZM17.5 22.75C18.0918 22.75 18.5714 23.2201 18.5714 23.8H20.7143C20.7143 22.0603 19.2752 20.65 17.5 20.65V22.75ZM17.5 20.65C15.7248 20.65 14.2857 22.0603 14.2857 23.8H16.4286C16.4286 23.2201 16.9083 22.75 17.5 22.75V20.65Z" fill="#787878"/>
</svg>
