<svg width="35" height="35" viewBox="0 0 35 35" fill="none" xmlns="http://www.w3.org/2000/svg">
<path d="M18.1058 8V10.5523L20.5474 9.083L21.1532 10.1787L18.1058 12.0153V16.4043L21.7409 14.2067V10.5333H22.9526V13.4783L25.067 12.199L25.6728 13.301L23.5584 14.574L26 16.0497L25.3942 17.1453L22.3468 15.3087L18.7117 17.5L22.3468 19.6913L25.3942 17.8547L26 18.9503L23.5584 20.426L25.6728 21.699L25.067 22.801L22.9526 21.5217V24.4667H21.7409V20.7933L18.1058 18.5957V22.9847L21.1532 24.8213L20.5474 25.917L18.1058 24.4477V27H16.8942V24.4477L14.4526 25.917L13.8468 24.8213L16.8942 22.9847V18.5957L13.2591 20.7933V24.4667H12.0474V21.5217L9.933 22.801L9.32716 21.699L11.4416 20.426L9 18.9503L9.60584 17.8547L12.6532 19.6913L16.2883 17.5L12.6532 15.3087L9.60584 17.1453L9 16.0497L11.4416 14.574L9.32716 13.301L9.933 12.199L12.0474 13.4783V10.5333H13.2591V14.2067L16.8942 16.4043V12.0153L13.8468 10.1787L14.4526 9.083L16.8942 10.5523V8H18.1058Z" fill="#787878"/>
</svg>
