<svg width="35" height="35" viewBox="0 0 35 35" fill="none" xmlns="http://www.w3.org/2000/svg">
<path d="M27.2857 6.00001C27.7189 5.99879 28.1366 6.16164 28.4546 6.45583C28.7726 6.75001 28.9675 7.15371 29 7.58572V28.2857C29.0012 28.7189 28.8384 29.1366 28.5442 29.4546C28.25 29.7726 27.8463 29.9675 27.4143 30H6.71429C6.28106 30.0012 5.86343 29.8384 5.54539 29.5442C5.22736 29.25 5.0325 28.8463 5.00001 28.4143V7.71429C4.99879 7.28106 5.16164 6.86343 5.45583 6.54539C5.75001 6.22736 6.15371 6.0325 6.58572 6.00001H6.71429H27.2857ZM16.1429 15.4286H11V22.2857H6.71429V28.2857H27.2857V22.2857H24.7143V25.7143H16.1429V15.4286ZM13.5714 24C13.7988 24 14.0168 24.0903 14.1775 24.251C14.3383 24.4118 14.4286 24.6298 14.4286 24.8571C14.4286 25.0845 14.3383 25.3025 14.1775 25.4632C14.0168 25.624 13.7988 25.7143 13.5714 25.7143C13.3441 25.7143 13.1261 25.624 12.9653 25.4632C12.8046 25.3025 12.7143 25.0845 12.7143 24.8571C12.7143 24.6298 12.8046 24.4118 12.9653 24.251C13.1261 24.0903 13.3441 24 13.5714 24ZM27.2857 7.71429H6.71429V20.5714H9.28572V15.4286C9.2845 14.9953 9.44736 14.5777 9.74154 14.2597C10.0357 13.9416 10.4394 13.7468 10.8714 13.7143H16.1429C16.5761 13.7131 16.9937 13.8759 17.3118 14.1701C17.6298 14.4643 17.8247 14.868 17.8571 15.3V24H23V22.2857C22.9988 21.8525 23.1616 21.4349 23.4558 21.1168C23.75 20.7988 24.1537 20.6039 24.5857 20.5714H27.2857V7.71429ZM13.5714 20.5714C13.7988 20.5714 14.0168 20.6617 14.1775 20.8225C14.3383 20.9832 14.4286 21.2012 14.4286 21.4286C14.4286 21.6559 14.3383 21.8739 14.1775 22.0347C14.0168 22.1954 13.7988 22.2857 13.5714 22.2857C13.3441 22.2857 13.1261 22.1954 12.9653 22.0347C12.8046 21.8739 12.7143 21.6559 12.7143 21.4286C12.7143 21.2012 12.8046 20.9832 12.9653 20.8225C13.1261 20.6617 13.3441 20.5714 13.5714 20.5714ZM13.5714 17.1429C13.7988 17.1429 14.0168 17.2332 14.1775 17.3939C14.3383 17.5547 14.4286 17.7727 14.4286 18C14.4286 18.2273 14.3383 18.4453 14.1775 18.6061C14.0168 18.7668 13.7988 18.8571 13.5714 18.8571C13.3441 18.8571 13.1261 18.7668 12.9653 18.6061C12.8046 18.4453 12.7143 18.2273 12.7143 18C12.7143 17.7727 12.8046 17.5547 12.9653 17.3939C13.1261 17.2332 13.3441 17.1429 13.5714 17.1429ZM22.1429 10.2857C22.8248 10.2857 23.4789 10.5566 23.9611 11.0389C24.4434 11.5211 24.7143 12.1752 24.7143 12.8571C24.7143 13.5391 24.4434 14.1932 23.9611 14.6754C23.4789 15.1577 22.8248 15.4286 22.1429 15.4286C21.4609 15.4286 20.8068 15.1577 20.3246 14.6754C19.8423 14.1932 19.5714 13.5391 19.5714 12.8571C19.5714 12.1752 19.8423 11.5211 20.3246 11.0389C20.8068 10.5566 21.4609 10.2857 22.1429 10.2857ZM22.1429 12C21.9155 12 21.6975 12.0903 21.5368 12.2511C21.376 12.4118 21.2857 12.6298 21.2857 12.8571C21.2857 13.0845 21.376 13.3025 21.5368 13.4632C21.6975 13.624 21.9155 13.7143 22.1429 13.7143C22.3702 13.7143 22.5882 13.624 22.7489 13.4632C22.9097 13.3025 23 13.0845 23 12.8571C23 12.6298 22.9097 12.4118 22.7489 12.2511C22.5882 12.0903 22.3702 12 22.1429 12Z" fill="#787878"/>
</svg>
