<svg width="35" height="35" viewBox="0 0 35 35" fill="none" xmlns="http://www.w3.org/2000/svg">
<path d="M25.1667 7C25.3172 7.00012 25.4643 7.04206 25.5897 7.12061C25.7151 7.19916 25.8133 7.31084 25.872 7.44172L25.9027 7.52862L27.436 12.5976C27.4655 12.6984 27.4715 12.804 27.4537 12.9073C27.4359 13.0105 27.3946 13.1088 27.3326 13.1955C27.2707 13.2822 27.1896 13.3553 27.095 13.4095C27.0003 13.4638 26.8943 13.4981 26.7843 13.51L26.7 13.5172H24.4V17.1379H29V18.5862H27.4667V28H25.9333V26.1607C25.5283 26.3831 25.0744 26.5144 24.607 26.5445L24.4 26.5517H10.6C10.0613 26.5515 9.53227 26.4166 9.06667 26.1607V28H7.53333V18.5862H6V17.1379H9.83333V14.2414C9.83197 14.0635 9.9 13.8913 10.0244 13.7578C10.1489 13.6242 10.321 13.5386 10.508 13.5172H10.784L9.90233 11.6345L11.2977 11.0552L12.463 13.5172H14.4333C14.6217 13.516 14.8039 13.5802 14.9454 13.6977C15.0868 13.8153 15.1774 13.9779 15.2 14.1545V17.1379H22.8667V13.5172H20.5667C20.4554 13.5175 20.3454 13.495 20.2444 13.4511C20.1433 13.4072 20.0535 13.3431 19.9813 13.2632C19.9091 13.1833 19.8561 13.0895 19.8262 12.9883C19.7962 12.8871 19.7899 12.781 19.8077 12.6772L19.8307 12.5976L21.364 7.52862C21.4051 7.3915 21.4882 7.26889 21.6027 7.17615C21.7173 7.08341 21.8582 7.02465 22.008 7.00724L22.1 7H25.1667ZM25.9333 18.5862H9.06667V23.6552C9.06618 24.002 9.19746 24.3374 9.43663 24.6005C9.67581 24.8636 10.007 25.0369 10.37 25.089L10.485 25.0962L10.6 25.1034H24.4C24.7875 25.1045 25.161 24.9669 25.4455 24.7184C25.73 24.4698 25.9043 24.1288 25.9333 23.7638V18.5862ZM13.6667 14.9655H11.3667V17.1379H13.6667V14.9655ZM24.584 8.44828H22.675L21.5787 12.069H25.6803L24.584 8.44828Z" fill="#787878"/>
</svg>
