<svg width="35" height="35" viewBox="0 0 35 35" fill="none" xmlns="http://www.w3.org/2000/svg">
<path d="M16.3578 14.9064C16.1792 15.0422 16.1435 15.2934 16.277 15.4687C16.4101 15.645 16.6623 15.6781 16.8409 15.5427C17.0192 15.4069 17.0559 15.1547 16.9224 14.9794C16.7893 14.8033 16.5354 14.7709 16.3578 14.9064Z" fill="#787878"/>
<path d="M15.4059 16.1302C15.2727 15.9542 15.0195 15.9219 14.8412 16.0573C14.6626 16.192 14.627 16.4446 14.7601 16.6199C14.8936 16.7959 15.1458 16.8283 15.3241 16.6935C15.5027 16.5578 15.539 16.3056 15.4059 16.1302Z" fill="#787878"/>
<path d="M13.8883 17.2816C13.7548 17.1063 13.502 17.0739 13.3234 17.2086C13.1451 17.3444 13.1094 17.5963 13.2426 17.7726C13.3757 17.948 13.6279 17.9803 13.8065 17.8449C13.9848 17.7098 14.0214 17.4576 13.8883 17.2816Z" fill="#787878"/>
<path d="M11.8066 18.3629C11.6274 18.4977 11.5917 18.7502 11.7252 18.9262C11.8583 19.1015 12.1112 19.1339 12.2891 18.9982C12.4674 18.8634 12.5047 18.6105 12.3706 18.4352C12.2375 18.2599 11.9842 18.2265 11.8066 18.3629Z" fill="#787878"/>
<path d="M10.2883 19.5135C10.1103 19.6493 10.0741 19.9012 10.2072 20.0765C10.3407 20.2528 10.5935 20.2852 10.7712 20.1498C10.9498 20.0147 10.9861 19.7625 10.8529 19.5865C10.7198 19.4105 10.4666 19.3788 10.2883 19.5135Z" fill="#787878"/>
<path d="M15.8008 14.3064C15.9945 14.2262 16.0841 13.9963 15.9997 13.7925C15.9156 13.5887 15.6896 13.4879 15.4953 13.5681C15.301 13.6489 15.2123 13.8788 15.2964 14.0826C15.3805 14.2864 15.6065 14.3865 15.8008 14.3064Z" fill="#787878"/>
<path d="M14.1474 14.9909C14.342 14.9108 14.4316 14.6798 14.3475 14.477C14.2632 14.2729 14.0371 14.1731 13.8428 14.2533C13.6495 14.3334 13.5598 14.5634 13.6439 14.7672C13.7286 14.971 13.954 15.0711 14.1474 14.9909Z" fill="#787878"/>
<path d="M12.1896 14.9346C11.9953 15.0144 11.9066 15.2447 11.9907 15.4491C12.0755 15.6523 12.3008 15.753 12.4952 15.6719C12.6888 15.5921 12.7784 15.3618 12.6944 15.158C12.6102 14.9542 12.3839 14.8541 12.1896 14.9346Z" fill="#787878"/>
<path d="M10.5374 15.6173C10.3438 15.6974 10.2542 15.9273 10.3382 16.1311C10.4223 16.336 10.6483 16.4357 10.8426 16.3555C11.037 16.2747 11.1259 16.0448 11.0419 15.841C10.9578 15.6372 10.7318 15.5365 10.5374 15.6173Z" fill="#787878"/>
<path d="M8.88394 16.3016C8.68965 16.3818 8.60098 16.6123 8.68505 16.8155C8.76977 17.0203 8.99515 17.1201 9.18948 17.0399C9.38378 16.9591 9.4734 16.7292 9.38869 16.525C9.30465 16.3213 9.07859 16.2215 8.88394 16.3016Z" fill="#787878"/>
<path d="M7.23155 16.983C7.03658 17.0631 6.94759 17.2941 7.03167 17.4972C7.11642 17.7017 7.3418 17.8014 7.5361 17.7216C7.73043 17.6415 7.81938 17.4115 7.7353 17.2067C7.65123 17.0029 7.42517 16.9022 7.23155 16.983Z" fill="#787878"/>
<path d="M18.1198 16.6678C18.2553 16.4892 18.2229 16.2363 18.0475 16.1038C17.8715 15.9697 17.6193 16.0063 17.4835 16.1846C17.3488 16.3632 17.3812 16.6154 17.5565 16.7492C17.7325 16.8827 17.9847 16.846 18.1198 16.6678Z" fill="#787878"/>
<path d="M16.3317 17.7017C16.1962 17.8803 16.2286 18.1325 16.4049 18.2657C16.5799 18.3998 16.8321 18.3635 16.9672 18.1849C17.1027 18.0072 17.0703 17.7534 16.8949 17.6203C16.7189 17.4871 16.4668 17.5234 16.3317 17.7017Z" fill="#787878"/>
<path d="M15.8166 19.7017C15.9514 19.524 15.919 19.2718 15.7436 19.1377C15.5676 19.0046 15.3154 19.0412 15.1803 19.2195C15.0449 19.3971 15.0773 19.6503 15.2533 19.7841C15.4286 19.9175 15.6808 19.8809 15.8166 19.7017Z" fill="#787878"/>
<path d="M14.027 20.7359C13.8916 20.9152 13.924 21.1674 14.1 21.3005C14.2753 21.4336 14.5275 21.3974 14.6626 21.2197C14.799 21.0411 14.7663 20.7889 14.5903 20.6551C14.415 20.5216 14.1628 20.5583 14.027 20.7359Z" fill="#787878"/>
<path d="M12.8744 22.2529C12.7389 22.4306 12.7723 22.6828 12.9473 22.8169C13.1226 22.951 13.3748 22.9137 13.5106 22.7351C13.6463 22.5575 13.6136 22.3052 13.4376 22.1711C13.2624 22.0377 13.0102 22.0743 12.8744 22.2529Z" fill="#787878"/>
<path d="M19.2315 17.0252C19.0277 16.9412 18.7977 17.0308 18.7175 17.2254C18.6364 17.4187 18.7372 17.6442 18.9413 17.7289C19.1451 17.813 19.3751 17.724 19.4552 17.5297C19.5353 17.3353 19.4353 17.1102 19.2315 17.0252Z" fill="#787878"/>
<path d="M18.5496 18.6777C18.3458 18.5936 18.1159 18.6826 18.0357 18.8775C17.9549 19.0712 18.0557 19.2963 18.2595 19.3813C18.4633 19.4654 18.6932 19.3758 18.7733 19.1824C18.8535 18.9881 18.7534 18.7617 18.5496 18.6777Z" fill="#787878"/>
<path d="M17.8667 20.33C17.6629 20.2459 17.4326 20.3349 17.3518 20.5299C17.2716 20.7235 17.3724 20.9496 17.5755 21.0336C17.78 21.1177 18.0103 21.0287 18.09 20.8344C18.1702 20.6401 18.0704 20.4141 17.8667 20.33Z" fill="#787878"/>
<path d="M17.1839 21.9843C16.9801 21.9003 16.7501 21.9892 16.669 22.1835C16.5891 22.3778 16.6899 22.6039 16.8937 22.6879C17.0975 22.772 17.3275 22.6824 17.4076 22.489C17.4877 22.2944 17.3877 22.0684 17.1839 21.9843Z" fill="#787878"/>
<path d="M16.5012 23.6367C16.2974 23.5526 16.0668 23.6416 15.9867 23.8359C15.9065 24.0302 16.0063 24.2556 16.2104 24.3393C16.4142 24.4244 16.6448 24.3348 16.725 24.1411C16.8051 23.9468 16.7053 23.7207 16.5012 23.6367Z" fill="#787878"/>
<path d="M15.8169 25.2905C15.6141 25.2064 15.3832 25.2954 15.303 25.4897C15.2229 25.684 15.323 25.9091 15.5268 25.9934C15.7306 26.0782 15.9615 25.9885 16.0417 25.7949C16.1215 25.6006 16.0217 25.3745 15.8169 25.2905Z" fill="#787878"/>
<path d="M23.6039 10C22.5957 9.99968 21.6759 10.4089 21.0135 11.069L21.0131 11.0687L20.2656 11.7959L21.2133 12.7429L21.9493 12.0275L21.9542 12.0226C22.3775 11.5999 22.9578 11.3402 23.6039 11.3399C24.2503 11.3402 24.8293 11.5999 25.2536 12.0232C25.6769 12.4472 25.9366 13.0262 25.9369 13.6729V25.6298H27.2768V13.6729C27.2765 11.6438 25.6327 10.0003 23.6039 10Z" fill="#787878"/>
<path d="M20.9232 13.0215L19.9817 12.08L19.8898 11.9881L16.5394 11.9849L15.7939 12.7304L20.2928 17.2293L21.0374 16.4834L21.035 13.133L20.9232 13.0215Z" fill="#787878"/>
</svg>
