<svg width="35" height="35" viewBox="0 0 35 35" fill="none" xmlns="http://www.w3.org/2000/svg">
<path d="M17.5 20.6538C18.2102 20.6538 18.8914 20.9354 19.3936 21.4367C19.8958 21.938 20.178 22.618 20.178 23.3269C20.178 24.0359 19.8958 24.7158 19.3936 25.2171C18.8914 25.7184 18.2102 26 17.5 26C16.7898 26 16.1086 25.7184 15.6064 25.2171C15.1042 24.7158 14.822 24.0359 14.822 23.3269C14.822 22.618 15.1042 21.938 15.6064 21.4367C16.1086 20.9354 16.7898 20.6538 17.5 20.6538ZM17.5 22.1105C17.1768 22.1105 16.8669 22.2387 16.6383 22.4668C16.4098 22.6949 16.2814 23.0043 16.2814 23.3269C16.2814 23.6495 16.4098 23.9589 16.6383 24.187C16.8669 24.4151 17.1768 24.5433 17.5 24.5433C17.8232 24.5433 18.1331 24.4151 18.3617 24.187C18.5902 23.9589 18.7186 23.6495 18.7186 23.3269C18.7186 23.0043 18.5902 22.6949 18.3617 22.4668C18.1331 22.2387 17.8232 22.1105 17.5 22.1105ZM17.5 16.7716C18.7172 16.7719 19.9105 17.1099 20.9464 17.7479C21.9824 18.3858 22.8203 19.2986 23.3668 20.3843L22.2649 21.4841C21.8934 20.5239 21.2394 19.6983 20.3889 19.1161C19.5384 18.5339 18.5313 18.2223 17.5 18.2223C16.4687 18.2223 15.4616 18.5339 14.6111 19.1161C13.7606 19.6983 13.1066 20.5239 12.7351 21.4841L11.6332 20.3843C12.1797 19.2986 13.0176 18.3858 14.0536 17.7479C15.0896 17.1099 16.2828 16.7719 17.5 16.7716ZM17.5 12.8895C21.1339 12.8895 24.3372 14.7395 26.2126 17.551L25.1545 18.5998C24.3483 17.2972 23.2219 16.2219 21.8822 15.4761C20.5425 14.7303 19.034 14.3388 17.5 14.3388C15.966 14.3388 14.4575 14.7303 13.1178 15.4761C11.7781 16.2219 10.6517 17.2972 9.8455 18.5998L8.78744 17.5437C9.74142 16.1093 11.0363 14.9329 12.5566 14.1195C14.0768 13.3061 15.7751 12.881 17.5 12.8822V12.8895ZM17.5 9C22.2065 9 26.3877 11.2579 29 14.7541L27.9565 15.8029C26.7647 14.1457 25.1947 12.7956 23.3764 11.8643C21.5581 10.933 19.5437 10.4472 17.5 10.4472C15.4563 10.4472 13.4419 10.933 11.6236 11.8643C9.80529 12.7956 8.23528 14.1457 7.04346 15.8029L6 14.7614C8.61231 11.2652 12.7862 9.00728 17.5 9.00728V9Z" fill="#787878"/>
</svg>
