<svg width="35" height="35" viewBox="0 0 35 35" fill="none" xmlns="http://www.w3.org/2000/svg">
<path d="M24.35 9C24.8651 9.00162 25.3622 9.17014 25.7505 9.47473C26.1388 9.77932 26.3922 10.1996 26.4643 10.6586C26.8214 12.9471 27 15.3964 27 18C27 20.6036 26.8214 23.0529 26.4643 25.3414C26.3944 25.7813 26.1579 26.1859 25.7948 26.487C25.4317 26.788 24.9642 26.9669 24.4714 26.9936L24.35 27H9.64286C9.1278 26.9984 8.63061 26.8299 8.24234 26.5253C7.85406 26.2207 7.60068 25.8004 7.52857 25.3414C7.17857 23.0529 7 20.6036 7 18C7 15.3964 7.17857 12.9471 7.53571 10.6586C7.60559 10.2187 7.84207 9.81408 8.20519 9.51305C8.5683 9.21202 9.03577 9.03306 9.52857 9.00643L9.64286 9H24.35ZM24.35 10.2857H9.65714C9.48382 10.2842 9.31579 10.3394 9.18437 10.4411C9.05295 10.5429 8.96712 10.6841 8.94286 10.8386C8.58773 13.2121 8.41589 15.605 8.42857 18C8.42857 20.5457 8.6 22.9307 8.95 25.1614C8.97243 25.3013 9.04546 25.4307 9.1578 25.5294C9.27013 25.6282 9.41551 25.6909 9.57143 25.7079L9.65 25.7143H24.3429C24.5162 25.7158 24.6842 25.6606 24.8156 25.5589C24.947 25.4571 25.0329 25.3159 25.0571 25.1614C25.4 22.9307 25.5714 20.5457 25.5714 18C25.5714 15.4543 25.4 13.0693 25.05 10.8386C25.0263 10.6874 24.9435 10.5487 24.8166 10.4474C24.6896 10.3461 24.5268 10.2888 24.3571 10.2857H24.35ZM17 12.2143C18.705 12.2143 20.3401 12.8239 21.5457 13.9089C22.7513 14.9939 23.4286 16.4655 23.4286 18C23.4286 19.5345 22.7513 21.0061 21.5457 22.0911C20.3401 23.1761 18.705 23.7857 17 23.7857C15.295 23.7857 13.6599 23.1761 12.4543 22.0911C11.2487 21.0061 10.5714 19.5345 10.5714 18C10.5714 16.4655 11.2487 14.9939 12.4543 13.9089C13.6599 12.8239 15.295 12.2143 17 12.2143ZM12.8286 17.0357C12.5857 17.0357 12.3429 17.0486 12.1 17.0807C11.8545 18.1487 12.0484 19.2606 12.6455 20.2096C13.2426 21.1586 14.2023 21.8802 15.3462 22.2401C16.4901 22.6001 17.7403 22.5739 18.8643 22.1664C19.9884 21.759 20.9098 20.998 21.4571 20.025C20.5633 20.0912 19.6638 19.99 18.8156 19.7278C17.9673 19.4655 17.1886 19.048 16.5286 18.5014L16.3643 18.3536C15.9007 17.9349 15.3496 17.6029 14.7427 17.3767C14.1359 17.1505 13.4854 17.0346 12.8286 17.0357ZM17 13.5C16.1214 13.4991 15.258 13.7066 14.4968 14.1016C13.7357 14.4966 13.1036 15.0652 12.6643 15.75H12.8286C14.4429 15.75 16 16.29 17.2 17.2929L17.3714 17.4471C17.9594 17.9782 18.6858 18.3683 19.4844 18.5816C20.2829 18.795 21.1282 18.8249 21.9429 18.6686C22.0497 18.0284 22.0019 17.375 21.8026 16.7531C21.6032 16.1311 21.2572 15.5551 20.788 15.0645C20.3188 14.5738 19.7375 14.1801 19.0837 13.9101C18.43 13.6401 17.7193 13.5002 17 13.5ZM10.5714 11.5714C10.7609 11.5714 10.9426 11.6392 11.0765 11.7597C11.2105 11.8803 11.2857 12.0438 11.2857 12.2143C11.2857 12.3848 11.2105 12.5483 11.0765 12.6689C10.9426 12.7894 10.7609 12.8571 10.5714 12.8571C10.382 12.8571 10.2003 12.7894 10.0664 12.6689C9.9324 12.5483 9.85714 12.3848 9.85714 12.2143C9.85714 12.0438 9.9324 11.8803 10.0664 11.7597C10.2003 11.6392 10.382 11.5714 10.5714 11.5714Z" fill="#787878"/>
</svg>
