<svg width="35" height="35" viewBox="0 0 35 35" fill="none" xmlns="http://www.w3.org/2000/svg">
<path d="M23.7241 7C24.1543 7 24.5803 7.09053 24.9778 7.26642C25.3752 7.44231 25.7363 7.70012 26.0405 8.02513C26.3447 8.35013 26.586 8.73597 26.7506 9.16061C26.9153 9.58525 27 10.0404 27 10.5C27 14.973 25.9517 19.733 24.3793 20.79V28H23.069V20.79C21.5228 19.754 20.4876 15.141 20.4483 10.738V10.346C20.4854 9.44469 20.8469 8.59353 21.4573 7.97009C22.0676 7.34666 22.8797 6.99913 23.7241 7ZM17.8276 7V19.684C19.3476 20.069 20.4483 21.784 20.4483 23.8C20.4483 26.089 19.02 28 17.1724 28C15.3248 28 13.8966 26.089 13.8966 23.8C13.8966 21.791 14.9972 20.069 16.5172 19.684V7H17.8276ZM8 7H8.65517C11.5838 7 13.1955 11.459 13.2414 19.95V21H9.31034V28H8V7ZM17.1724 21C16.1241 21 15.2069 22.225 15.2069 23.8C15.2069 25.375 16.1241 26.6 17.1724 26.6C18.2207 26.6 19.1379 25.375 19.1379 23.8C19.1379 22.225 18.2207 21 17.1724 21ZM9.31034 8.568V19.6H11.931L11.9179 18.928L11.8983 18.263C11.7148 12.712 10.7779 9.534 9.45448 8.652L9.37586 8.61L9.31034 8.568ZM21.7586 10.374V10.717C21.7914 13.741 22.4334 17.108 23.069 18.69V8.519C22.7039 8.65606 22.3848 8.9052 22.1517 9.23518C21.9186 9.56517 21.7819 9.96133 21.7586 10.374ZM24.3793 8.519V18.69C25.0279 17.073 25.6897 13.58 25.6897 10.5C25.6899 10.0655 25.564 9.64171 25.3293 9.28691C25.0946 8.93212 24.7627 8.66382 24.3793 8.519Z" fill="#787878"/>
</svg>
