<svg width="35" height="35" viewBox="0 0 35 35" fill="none" xmlns="http://www.w3.org/2000/svg">
<path d="M23.4286 19.5C23.4286 19.6989 23.3608 19.8897 23.2403 20.0303C23.1197 20.171 22.9562 20.25 22.7857 20.25C22.6152 20.25 22.4517 20.171 22.3311 20.0303C22.2106 19.8897 22.1429 19.6989 22.1429 19.5C22.1429 19.3011 22.2106 19.1103 22.3311 18.9697C22.4517 18.829 22.6152 18.75 22.7857 18.75C22.9562 18.75 23.1197 18.829 23.2403 18.9697C23.3608 19.1103 23.4286 19.3011 23.4286 19.5ZM11.2143 18.75C11.0438 18.75 10.8803 18.829 10.7597 18.9697C10.6392 19.1103 10.5714 19.3011 10.5714 19.5C10.5714 19.6989 10.6392 19.8897 10.7597 20.0303C10.8803 20.171 11.0438 20.25 11.2143 20.25C11.3848 20.25 11.5483 20.171 11.6689 20.0303C11.7894 19.8897 11.8571 19.6989 11.8571 19.5C11.8571 19.3011 11.7894 19.1103 11.6689 18.9697C11.5483 18.829 11.3848 18.75 11.2143 18.75ZM24.5214 15L24.785 15.84C25.162 16.1873 25.467 16.6293 25.6774 17.1331C25.8877 17.6369 25.998 18.1896 26 18.75V25.5C26 25.8978 25.8645 26.2794 25.6234 26.5607C25.3823 26.842 25.0553 27 24.7143 27H23.4286C23.0876 27 22.7606 26.842 22.5194 26.5607C22.2783 26.2794 22.1429 25.8978 22.1429 25.5V24H11.8571V25.5C11.8571 25.8978 11.7217 26.2794 11.4806 26.5607C11.2394 26.842 10.9124 27 10.5714 27H9.28571C8.94472 27 8.6177 26.842 8.37658 26.5607C8.13546 26.2794 8 25.8978 8 25.5V18.75C8 17.5725 8.48214 16.53 9.215 15.84L9.47857 15H8V13.5H9.92857V13.6125L11.0986 9.975C11.1901 9.6891 11.3543 9.44259 11.5691 9.26837C11.7839 9.09416 12.0391 9.00053 12.3007 9H21.6993C22.2329 9 22.715 9.39 22.9014 9.975L24.0714 13.6125V13.5H26V15H24.5214ZM10.5714 24H9.28571V25.5H10.5714V24ZM24.7143 24H23.4286V25.5H24.7143V24ZM24.7143 22.5V18.75C24.7143 18.1533 24.5111 17.581 24.1494 17.159C23.7877 16.7371 23.2972 16.5 22.7857 16.5H11.2143C10.7028 16.5 10.2123 16.7371 9.85058 17.159C9.4889 17.581 9.28571 18.1533 9.28571 18.75V22.5H24.7143ZM22.7857 15H23.1457L21.6929 10.5H12.3007L10.8543 15H22.7857ZM13.1429 20.25H20.8571V18.75H13.1429V20.25Z" fill="#787878"/>
</svg>
