<svg width="35" height="35" viewBox="0 0 35 35" fill="none" xmlns="http://www.w3.org/2000/svg">
<path d="M12.1333 27V25.5385H13.6667V24.0769H9.83333C8.84523 24.0778 7.89492 23.715 7.18069 23.0642C6.46646 22.4134 6.04348 21.5248 6 20.5838V11.6538C5.99904 10.712 6.37968 9.8062 7.06248 9.12541C7.74529 8.44462 8.67752 8.04144 9.66467 8H25.1667C26.1548 7.99909 27.1051 8.3619 27.8193 9.01274C28.5335 9.66357 28.9565 10.5522 29 11.4931V20.4231C29.001 21.3649 28.6203 22.2707 27.9375 22.9515C27.2547 23.6323 26.3225 24.0355 25.3353 24.0769H21.3333V25.5385H22.8667V27H12.1333ZM19.8 24.0769H15.2V25.5385H19.8V24.0769ZM25.1667 9.46154H9.83333C9.24651 9.46053 8.68148 9.67336 8.2539 10.0565C7.82632 10.4396 7.56854 10.964 7.53333 11.5223V20.4231C7.53228 20.9824 7.75557 21.521 8.15749 21.9286C8.55941 22.3361 9.10957 22.5818 9.69533 22.6154H25.1667C25.7535 22.6164 26.3185 22.4036 26.7461 22.0205C27.1737 21.6374 27.4315 21.113 27.4667 20.5546V11.6538C27.4677 11.0945 27.2444 10.5559 26.8425 10.1484C26.4406 9.74081 25.8904 9.4951 25.3047 9.46154H25.1667Z" fill="#787878"/>
</svg>
