<svg width="35" height="35" viewBox="0 0 35 35" fill="none" xmlns="http://www.w3.org/2000/svg">
<path d="M7.82278 12.2623L8.87873 13.1743C7.9494 14.4741 7.4592 15.9724 7.46346 17.5C7.46312 18.9654 7.91563 20.4043 8.77427 21.6682C9.63291 22.9321 10.8666 23.9752 12.3479 24.6898C13.8292 25.4043 15.5045 25.7645 17.2008 25.7331C18.8971 25.7016 20.553 25.2798 21.9974 24.511L23.0607 25.423C21.2633 26.4532 19.1535 27.0018 16.9963 27C15.0095 26.9995 13.0599 26.5342 11.3546 25.6536C9.64933 24.7729 8.25209 23.5098 7.31128 21.9984C6.37048 20.4869 5.92125 18.7836 6.01131 17.0694C6.10137 15.3551 6.72736 13.694 7.82278 12.2623ZM7.9841 8.817L27.0498 25.2837L26.0086 26.183L6.94282 9.71633L7.9841 8.817ZM16.9963 8C18.9838 7.99935 20.9344 8.46379 22.6407 9.34398C24.347 10.2242 25.7453 11.4872 26.687 12.9988C27.6287 14.5105 28.0785 16.2142 27.9888 17.929C27.899 19.6438 27.273 21.3056 26.1772 22.7377L25.1139 21.8193C26.042 20.5214 26.5321 19.0255 26.5292 17.5C26.5292 15.3164 25.5249 13.2222 23.7371 11.6782C21.9493 10.1341 19.5246 9.26667 16.9963 9.26667C15.2276 9.26299 13.4929 9.68636 11.9879 10.489L10.9393 9.58333C12.7338 8.55209 14.8409 8.0013 16.9963 8ZM13.4032 18.1333C13.5469 18.7419 13.8946 19.3005 14.4031 19.7397C14.9116 20.1789 15.5584 20.4792 16.263 20.6033V21.889C15.1659 21.7524 14.1494 21.3128 13.3655 20.6358C12.5817 19.9589 12.0727 19.0809 11.9146 18.1333H13.4032ZM17.7296 20.8187L18.7196 21.68C18.3985 21.7781 18.0669 21.8481 17.7296 21.889V20.8187ZM20.8388 18.1333H22.0781C22.0268 18.431 21.9461 18.716 21.8288 18.9883L20.8388 18.1333ZM17.7296 13.111C18.8268 13.2476 19.8433 13.6872 20.6271 14.3642C21.4109 15.0411 21.92 15.9191 22.0781 16.8667H20.5895C20.4458 16.2581 20.0981 15.6995 19.5896 15.2603C19.0811 14.8211 18.4343 14.5208 17.7296 14.3967V13.111ZM12.1566 16.0117L13.1539 16.8667H11.9146C11.9659 16.569 12.0466 16.284 12.1566 16.0117ZM16.263 13.111V14.1813L15.2731 13.32C15.5942 13.2219 15.9258 13.1519 16.263 13.111ZM22.1294 12.4333C22.3239 12.4333 22.5104 12.5001 22.6479 12.6188C22.7855 12.7376 22.8627 12.8987 22.8627 13.0667C22.8627 13.2346 22.7855 13.3957 22.6479 13.5145C22.5104 13.6333 22.3239 13.7 22.1294 13.7C21.9349 13.7 21.7484 13.6333 21.6109 13.5145C21.4734 13.3957 21.3961 13.2346 21.3961 13.0667C21.3961 12.8987 21.4734 12.7376 21.6109 12.6188C21.7484 12.5001 21.9349 12.4333 22.1294 12.4333Z" fill="#787878"/>
</svg>
