<svg width="35" height="35" viewBox="0 0 35 35" fill="none" xmlns="http://www.w3.org/2000/svg">
<path d="M24.7953 8H9.212C8.36012 8 7.54314 8.33841 6.94077 8.94077C6.33841 9.54314 6 10.3601 6 11.212V26.3333C6 26.5278 6.07726 26.7143 6.21479 26.8519C6.35232 26.9894 6.53884 27.0667 6.73333 27.0667H9.66667C9.83419 27.0715 9.99832 27.0189 10.1318 26.9175C10.2652 26.8161 10.3598 26.672 10.4 26.5093L10.972 24.1333H23.028L23.6 26.5093C23.6402 26.672 23.7348 26.8161 23.8682 26.9175C24.0017 27.0189 24.1658 27.0715 24.3333 27.0667H27.2667C27.4612 27.0667 27.6477 26.9894 27.7852 26.8519C27.9227 26.7143 28 26.5278 28 26.3333V11.212C28 10.3614 27.6626 9.54552 27.0618 8.94336C26.461 8.34121 25.6459 8.00194 24.7953 8ZM10.4 22.6667H7.46667V19H26.5333V22.6667H10.4ZM11.1333 14.996V14.204C11.1352 14.1151 11.1713 14.0304 11.2342 13.9675C11.2971 13.9047 11.3818 13.8685 11.4707 13.8667H14.4627C14.5515 13.8685 14.6363 13.9047 14.6991 13.9675C14.762 14.0304 14.7981 14.1151 14.8 14.204V14.996C14.7981 15.0849 14.762 15.1696 14.6991 15.2325C14.6363 15.2953 14.5515 15.3315 14.4627 15.3333H11.4707C11.3818 15.3315 11.2971 15.2953 11.2342 15.2325C11.1713 15.1696 11.1352 15.0849 11.1333 14.996ZM9.894 16.8H24.106C24.1663 16.8 24.2241 16.8239 24.2667 16.8666C24.3094 16.9092 24.3333 16.967 24.3333 17.0273V17.5333H9.66667V17.0273C9.66667 16.967 9.69062 16.9092 9.73325 16.8666C9.77588 16.8239 9.83371 16.8 9.894 16.8ZM19.2 14.996V14.204C19.2019 14.1151 19.238 14.0304 19.3009 13.9675C19.3637 13.9047 19.4485 13.8685 19.5373 13.8667H22.5293C22.6182 13.8685 22.7029 13.9047 22.7658 13.9675C22.8287 14.0304 22.8648 14.1151 22.8667 14.204V14.996C22.8648 15.0849 22.8287 15.1696 22.7658 15.2325C22.7029 15.2953 22.6182 15.3315 22.5293 15.3333H19.5373C19.4485 15.3315 19.3637 15.2953 19.3009 15.2325C19.238 15.1696 19.2019 15.0849 19.2 14.996ZM7.46667 11.212C7.4686 10.7497 7.6531 10.3069 7.98 9.98C8.30689 9.6531 8.7497 9.4686 9.212 9.46667H24.7953C25.257 9.46861 25.699 9.65334 26.0247 9.98045C26.3505 10.3076 26.5333 10.7504 26.5333 11.212V17.5333H25.8V17.0273C25.8053 16.6144 25.6589 16.2138 25.3886 15.9016C25.1183 15.5894 24.7428 15.3872 24.3333 15.3333C24.3568 15.215 24.369 15.0947 24.37 14.974V14.204C24.37 13.964 24.3222 13.7264 24.2293 13.5051C24.1363 13.2838 24.0001 13.0832 23.8287 12.9152C23.6573 12.7472 23.4541 12.6151 23.231 12.5267C23.0078 12.4382 22.7693 12.3951 22.5293 12.4H19.5373C19.3004 12.4 19.0658 12.4467 18.847 12.5373C18.6281 12.628 18.4292 12.7609 18.2617 12.9284C18.0942 13.0959 17.9613 13.2948 17.8707 13.5136C17.78 13.7325 17.7333 13.9671 17.7333 14.204V14.996C17.7342 15.1094 17.7465 15.2224 17.77 15.3333H16.2667C16.2901 15.2224 16.3024 15.1094 16.3033 14.996V14.204C16.3034 13.964 16.2555 13.7264 16.1626 13.5051C16.0696 13.2838 15.9335 13.0832 15.7621 12.9152C15.5906 12.7472 15.3874 12.6151 15.1643 12.5267C14.9412 12.4382 14.7026 12.3951 14.4627 12.4H11.4707C10.9922 12.4 10.5334 12.5901 10.195 12.9284C9.85673 13.2667 9.66667 13.7255 9.66667 14.204V14.996C9.65548 15.1155 9.65548 15.2358 9.66667 15.3553C9.26098 15.4087 8.88853 15.6077 8.6187 15.9153C8.34887 16.2229 8.20006 16.6181 8.2 17.0273V17.5333H7.46667V11.212ZM9.09467 25.6H7.46667V24.1333H9.46133L9.09467 25.6ZM26.5333 25.6H24.9053L24.5387 24.1333H26.5333V25.6Z" fill="#787878"/>
</svg>
