<svg width="35" height="35" viewBox="0 0 35 35" fill="none" xmlns="http://www.w3.org/2000/svg">
<path d="M8.23495 9.00052C8.8574 9.51968 9.24995 10.279 9.24995 11.125C9.24995 12.6898 7.90682 13.9583 6.24998 13.9583C5.35426 13.9583 4.55024 13.5876 4.00056 12.9997M8.23495 9.00052C8.41212 9 8.60009 9 8.79995 9H26.1998C26.3996 9 26.5877 9 26.7648 9.00052M8.23495 9.00052C6.92275 9.00436 6.2034 9.03673 5.63801 9.30882C5.07352 9.58045 4.61459 10.0139 4.32698 10.547C4.03889 11.081 4.00462 11.7604 4.00056 12.9997M4.00056 12.9997C4 13.167 4 13.3446 4 13.5333V21.4667C4 21.6554 4 21.833 4.00056 22.0003M26.7648 9.00052C26.1423 9.51968 25.7498 10.279 25.7498 11.125C25.7498 12.6898 27.0929 13.9583 28.7498 13.9583C29.6454 13.9583 30.4495 13.5876 30.9991 12.9997M26.7648 9.00052C28.077 9.00436 28.7964 9.03673 29.3618 9.30882C29.9262 9.58045 30.3852 10.0139 30.6727 10.547C30.9609 11.081 30.9951 11.7604 30.9991 12.9997M4.00056 22.0003C4.55024 21.4124 5.35426 21.0417 6.24998 21.0417C7.90682 21.0417 9.24995 22.3101 9.24995 23.875C9.24995 24.7209 8.8574 25.4804 8.23495 25.9994M4.00056 22.0003C4.00462 23.2396 4.03889 23.9189 4.32698 24.453C4.61459 24.9861 5.07352 25.4196 5.63801 25.6912C6.2034 25.9633 6.92275 25.9956 8.23495 25.9994M8.23495 25.9994C8.41212 26 8.60009 26 8.79995 26H26.1998C26.3996 26 26.5877 26 26.7648 25.9994M26.7648 25.9994C26.1423 25.4804 25.7498 24.7209 25.7498 23.875C25.7498 22.3101 27.0929 21.0417 28.7498 21.0417C29.6457 21.0417 30.45 21.4127 30.9997 22.0009M26.7648 25.9994C28.077 25.9956 28.7964 25.9633 29.3618 25.6912C29.9262 25.4196 30.3852 24.9861 30.6727 24.453C30.9607 23.9191 30.9957 23.2398 30.9997 22.0009M30.9997 22.0009C31.0003 21.8334 30.9997 21.6556 30.9997 21.4667V13.5333C30.9997 13.3446 30.9997 13.167 30.9991 12.9997M20.4998 17.5C20.4998 19.0648 19.1568 20.3333 17.4999 20.3333C15.843 20.3333 14.4999 19.0648 14.4999 17.5C14.4999 15.9351 15.843 14.6667 17.4999 14.6667C19.1568 14.6667 20.4998 15.9351 20.4998 17.5Z" stroke="#787878" stroke-width="1.5" stroke-linecap="round" stroke-linejoin="round"/>
</svg>
