<svg width="35" height="35" viewBox="0 0 35 35" fill="none" xmlns="http://www.w3.org/2000/svg">
<path d="M15.1429 27.2857C12.939 27.2857 10.7847 26.6322 8.95222 25.4079C7.11979 24.1835 5.69159 22.4431 4.84821 20.407C4.00483 18.371 3.78416 16.1304 4.21411 13.969C4.64407 11.8075 5.70532 9.82203 7.26367 8.26367C8.82203 6.70532 10.8075 5.64407 12.969 5.21411C15.1304 4.78416 17.371 5.00483 19.407 5.84821C21.4431 6.69159 23.1835 8.11979 24.4079 9.95222C25.6322 11.7847 26.2857 13.939 26.2857 16.1429C26.2857 17.6061 25.9975 19.0551 25.4375 20.407C24.8775 21.759 24.0567 22.9874 23.022 24.022C21.9874 25.0567 20.759 25.8775 19.407 26.4375C18.0551 26.9975 16.6061 27.2857 15.1429 27.2857ZM15.1429 7.23449C13.3868 7.23449 11.6702 7.75523 10.2101 8.73084C8.74998 9.70644 7.61196 11.0931 6.93995 12.7155C6.26794 14.3379 6.09211 16.123 6.43469 17.8454C6.77728 19.5677 7.62291 21.1498 8.86462 22.3914C10.1063 23.6331 11.6884 24.4788 13.4107 24.8214C15.133 25.164 16.9182 24.9882 18.5406 24.3162C20.1629 23.6441 21.5496 22.5061 22.5253 21.046C23.5009 19.5859 24.0216 17.8693 24.0216 16.1133C24.0216 13.7585 23.0863 11.5001 21.421 9.83502C19.756 8.16993 17.4977 7.23449 15.1429 7.23449Z" fill="#861D5E"/>
<path d="M29.0078 30.9999C28.8774 31.0004 28.748 30.975 28.6275 30.9249C28.507 30.875 28.3977 30.8014 28.306 30.7086L22.8378 25.2411C22.6624 25.0528 22.5669 24.8038 22.5714 24.5466C22.5759 24.2894 22.6803 24.0441 22.8622 23.862C23.0441 23.6801 23.2896 23.5759 23.5468 23.5714C23.8041 23.5669 24.053 23.6624 24.2413 23.8378L29.7095 29.3053C29.8954 29.4915 29.9999 29.7438 29.9999 30.007C29.9999 30.27 29.8954 30.5223 29.7095 30.7086C29.6179 30.8014 29.5085 30.875 29.388 30.9249C29.2675 30.975 29.1382 31.0004 29.0078 30.9999Z" fill="#861D5E"/>
</svg>
