<svg width="35" height="35" viewBox="0 0 35 35" fill="none" xmlns="http://www.w3.org/2000/svg">
<path d="M14 17.8013C14 19.4581 12.6569 20.8013 11 20.8013C9.34316 20.8013 8 19.4581 8 17.8013C8 16.1444 9.34316 14.8013 11 14.8013C12.6569 14.8013 14 16.1444 14 17.8013Z" stroke="#841D5D"/>
<path d="M20.001 11.1997L14.001 15.3997" stroke="#841D5D" stroke-linecap="round"/>
<path d="M20.001 24.4007L14.001 20.2007" stroke="#841D5D" stroke-linecap="round"/>
<path d="M26 25.6001C26 27.257 24.6569 28.6001 23 28.6001C21.3432 28.6001 20 27.257 20 25.6001C20 23.9433 21.3432 22.6001 23 22.6001C24.6569 22.6001 26 23.9433 26 25.6001Z" stroke="#841D5D"/>
<path d="M26 10C26 11.6569 24.6569 13 23 13C21.3432 13 20 11.6569 20 10C20 8.34316 21.3432 7 23 7C24.6569 7 26 8.34316 26 10Z" stroke="#841D5D"/>
</svg>
