<svg width="35" height="35" viewBox="0 0 35 35" fill="none" xmlns="http://www.w3.org/2000/svg">
<path d="M17.5084 30.6724C17.1945 30.8801 16.8055 30.8801 16.4916 30.6724C13.9781 29.0089 3 21.2149 3 11.9773C3 10.1331 3.58309 8.34594 4.65007 6.91978C5.71705 5.49362 7.202 4.51659 8.85227 4.15493C10.5026 3.79326 12.2162 4.06929 13.7017 4.93607C14.4561 5.37627 15.128 5.95504 15.6914 6.64107C16.275 7.35164 17.725 7.35164 18.3086 6.64107C18.872 5.95504 19.5439 5.37627 20.2983 4.93607C21.7838 4.06929 23.4974 3.79326 25.1477 4.15493C26.798 4.51659 28.283 5.49362 29.3499 6.91978C30.4169 8.34594 31 10.1331 31 11.9773C31 21.2149 20.0219 29.0089 17.5084 30.6724Z" stroke="#1C274C" stroke-linecap="round" stroke-linejoin="round"/>
</svg>
